M48
;Layer_Color=9474304
;FILE_FORMAT=4:4
METRIC,LZ
;TYPE=PLATED
T1F00S00C0.3048
T2F00S00C0.4000
T3F00S00C1.0000
T5F00S00C1.6000
;TYPE=NON_PLATED
T6F00S00C3.0000
%
T01
X0017207Y00005807
X0019493
X0021779
X0024573
X0027051Y-0005969
X0029337
X0031623
Y-0008255
X0033082Y-00039913
X0035368
X0014921
X0012635
Y-00062773
X0010349
X0008063
X0005777
X0003491
Y-00085633
X0001205
X-0001081
X-0003367
Y-00062773
X-0005653
Y-00085633
X-0007939
X-0007366Y-0007366
X-0010225Y-00062773
X-0012511
X-0014797
X-0017083
X-0019369
X-0021655
Y-00039913
Y-00017053
Y00005807
X-0023941Y-00017053
Y-00039913
Y-00062773
Y-00085633
X-0021655
X-0019369
X-0017083
X-0014797
X-0012511
X-0010225
X-0005653Y00005807
X0005777
X0008063
Y-00017053
Y-00039913
X0010349
Y-00017053
X0012635
X0014921
Y00005807
X0012635
X0010349
Y-00085633
X0008063
X0005777
X0012635
X-0026227Y-00062773
X-0028513
X-00267206Y-00031023
Y-00022133
Y-00013243
X-00258316
Y-00022133
Y-00031023
X-00348486Y-00028913
X-00357376
X-00366266
X-00366156Y-00050073
X-00353456
Y-00062773
X-00366156
X-0036641Y-00085633
X-0034101
X-00340756Y-00062773
Y-00050073
X-00355996Y-00006893
X-00364886
Y00003267
X-00355996
Y00013427
X-00364886
X-00417467Y-00000253
Y-00023113
X-00417846Y-00046753
Y-00069613
Y-00092473
X-00441086Y-00093253
X-00463946
X-00486806
X-00509666
X-00532526
X-00555386
X-00578246
X-00601106
Y-00070393
Y-00047533
X-00623966
X-00532526
Y-00070393
X-00486806
X-00463946
X-00441086
X-00440706Y-00046753
Y-00023893
Y-00001033
X-00463946Y-00001813
X-00486806
X-00509666
Y-00024673
X-00486806
X-00463946
Y-00047533
X-00486806
X-00509666
X-00532526Y-00001813
X-0031561Y-00085633
X-00646826Y-00093253
Y-00047533
Y-00024673
Y-00001813
Y00021047
Y00043907
Y00066767
Y00089627
Y00112487
Y00135347
Y00158207
Y00181067
Y00203927
Y00226787
Y00249647
Y00272507
Y00295367
Y00318227
Y00341087
Y00363947
Y00386807
Y00409667
X-0060452Y0038481
X-00622956Y00364207
X-00622696Y00341087
Y00318227
Y00295367
Y00272507
Y00249647
Y00226787
Y00203927
X-00578506Y00205457
Y00182597
Y00159737
Y00136877
X-00554376
Y00159737
Y00182597
Y00205457
Y00228317
Y00251177
Y00274037
Y00296897
X-00578506
Y00274037
Y00251177
Y00228317
X-0052516Y00228057
Y00250917
Y00273777
Y00296637
X-00517546Y00310867
X-00495956
X-00480566Y00300447
X-00471676
Y00291557
X-00480566
X-00495851Y00273936
Y00251076
Y00228216
Y00205356
Y00182496
Y00159636
Y00136776
X-0052516Y00136617
Y00159477
Y00182337
Y00205197
X-00456326
Y00228057
Y00250917
Y00273777
X-0042102
Y00250917
Y00228057
Y00205197
Y00182337
Y00159477
Y00136617
Y00109947
X-0044515
X-00456326Y00136617
Y00159477
Y00182337
X-00380386Y00192757
Y00169897
Y00147037
Y00124177
Y00101317
X-0038673Y00079467
X-0039816Y00068037
X-0042102Y00062957
X-00417467Y00045467
Y00022607
X-00440706Y00021827
Y00044687
X-00463946Y00043907
Y00021047
X-00487463Y00020915
Y00043775
X-00532526Y00021047
X-00555386
X-00578246
Y00043907
X-00601106
Y00066767
X-00623966
Y00043907
Y00089627
Y00112487
Y00135347
Y00158207
X-00554376Y00114017
X-00560726Y00088617
X-00349906Y00078457
Y00101317
Y00124177
Y00147037
Y00169897
Y00192757
X-00305456Y00199107
Y00176247
Y00153387
X-0024449Y00158207
Y00135347
X-00261006Y00176247
X-00266086Y00199107
Y00221967
Y00244827
Y00267687
Y00290547
X-00279906Y00291557
X-00288796
Y00300447
X-00279906
X-00266086Y00310867
X-00305456
Y00290547
Y00267687
Y00244827
Y00221967
X-00349906Y00244827
Y00267687
X-00386736
Y00244827
Y00221967
X-00388006Y00310867
X-00410866
X-00433726
X-00456586
Y00348967
X-00433726
X-00410866
X-00388006
X-00365146
X-00342286
X-00319426
X-00288796Y00362677
X-00279906
Y00371567
X-00288796
X-0029718Y0039342
X-0027432
X-0025146
X-00250846Y00348967
X-0032004Y0039342
X-003429
X-0036576
X-0038862
X-0041148
X-0043434
X-004572
X-00471676Y00371567
X-00480566
Y00362677
X-00471676
X-00495956Y00348967
X-00517546
X-00540406
X-00565656Y00338547
X-00577236Y00319757
X-00592476Y00332457
X-00540406Y00310867
X-00552846Y00385537
X-0052705Y0038481
X-0050165
X-00364886Y00035017
Y00023587
X-00355996
X-0021655Y00028667
X-00142746Y00041367
Y00051527
X-00114696
Y00041367
X-0007374Y00019207
X-0005653Y00028667
X-0003367
X-0001081
Y00051527
Y00074387
X0001205
Y00051527
X0003491
Y00074387
X0005777
Y00051527
Y00028667
X0003491
X0001205
X0010349
X0012635
X0014921
Y00051527
X0012635
X0010349
Y00074387
X0012635
X0014921
X00136504Y00127987
X00113644
X00090784
X00087124Y00112487
X00078234
X00069344
X00060454
X00051564
Y00103597
X00060454
X00069344
X00078234
X00087124
X0008063Y00074387
X00080624Y00053057
X00067924Y00127987
X00052944Y00144237
X00052684Y00169897
X00065384Y00173707
X00076814Y00168627
X00090784Y00173707
Y00191487
X00113644
Y00173707
Y00150847
X00136504
Y00173707
X00137774Y00258797
X00144124Y00299437
Y00318487
Y00341347
Y00364207
X00121264
Y00341347
Y00318487
Y00299437
X00098404Y00296897
X00076814
X00053954
Y00321027
X00076814
X00098404
X00078604Y00347697
Y00370557
Y00393417
X00101464
X00124324
X00055744
Y00370557
Y00347697
X00032884
Y00370557
Y00393417
X00010024
Y00370557
Y00347697
X-00012836
Y00370557
Y00393417
X-0003683Y0037973
Y0036449
Y0034925
X-0005969
Y0036449
Y0037973
X-0008255
Y0036449
Y0034925
X-0010541
Y0036449
Y0037973
X-0012827
Y0036449
Y0034925
X-00127921Y00321306
X-00105061
X-0008255Y0032131
X-0005969
X-0003683
X-000136Y00321062
X-0001397Y0029718
X00002404Y00296897
X00027284Y00296897
Y00322297
Y00271497
X00002404Y00271497
Y00246097
X00027284Y00246097
Y00220697
X00002404Y00220697
Y00195297
X00027284Y00195297
X00052684
X00065384Y00191487
X00076814Y00209521
X00053954Y00246097
Y00271497
X-0003683Y0029718
X-0005969
X-0005842Y0026289
X-0008255
X-00105062Y0029718
X-00127921
X-00150781
X-00173641
X-00196501
X-00196501Y00321306
X-00219361
X-00227986Y00348967
X-00205126
X-00182266
X-00159406
X-00150781Y00321306
X-00173641
X-00177186Y00379447
X-00165756Y00381987
X-00188616
X-00198776Y00393417
Y00406117
X-0019558Y0024511
Y0022225
X-0021844
X-00240686Y00221967
X-00240463Y00244717
X-0021844Y0024511
Y0019558
X-0019558
X-0017272
X-0013019Y00191227
X-0010733
X-0008447
X-0009525Y0016891
X-0007366
X-00117496Y00168627
X-00124966Y00112487
Y00103597
X-00133856
Y00112487
X-00142746
Y00103597
X-00151636
X-00160526
Y00112487
X-00151636
X-0019877Y00135347
X-0022163
Y00158207
X-0019877
X-0023749Y0019939
X-0002351Y00169637
Y00144237
Y00126457
X00002404Y00126717
Y00144497
X00027284Y00144497
Y00126717
Y00169897
X00002404Y00169897
X00159364Y00173707
Y00150847
Y00127987
X00182224
X00205084
X00227944
Y00150847
X00205084
X00182224
Y00173707
X00205084
Y00191487
X00227944
Y00173707
X00250804
Y00196567
X0025081Y00215357
X00231754Y00213077
X00235564Y00272767
Y00295627
Y00318487
Y00341347
X00212704
Y00318487
X00189844
X00166984
X00164444Y00299437
X00184764
Y00276577
X00195184Y00271237
X00178414Y00249907
X00166984Y00341347
X0028764Y00341087
Y00363947
X0033336
Y00386807
Y00409667
X0035622
Y00386807
Y00363947
Y00341087
Y00318227
Y00295367
Y00272507
Y00249647
Y00226787
Y00203927
Y00181067
Y00158207
X0033336Y00112487
Y00089627
X003105Y00112487
X0028764
Y00135347
X003105
X0028764Y00158207
Y00181067
Y00203927
X003105
Y00226787
X0028764
Y00249647
Y00272507
Y00295367
Y00318227
X00250804Y00150847
X0026859Y00051527
X002597Y00040097
X0026859Y00028667
X0024573
X0021779
Y00051527
X0020636Y00040097
X0019493Y00028667
Y00051527
X0017207
Y00028667
Y00074387
X0029145Y00051527
Y00028667
X0031431
Y00051527
X0035368Y00028667
X0035622Y00432527
X0033336
X00314276Y00446969
X0030734Y0047117
X0031877Y0048768
X0034417
X0029337
X0026797
X0024257
X0021717
X0019177
X0016637
X0019177Y0045847
X0024257Y004572
X0026797
X0029337
X0026797Y0041656
X002413
X00147184Y00439137
X00124324
X0011303Y0044196
X00101464Y00439137
Y00416277
X00124324
X00078604
Y00439137
X00055744
Y00416277
X00032884
Y00439137
X00010024
Y00416277
X-00012836
X-00035696
X-00058556
Y00439137
X-00081416
Y00416277
X-00104276
Y00439137
Y00461997
Y00484857
X-00081416
X-00058556
X-00035696
X-00012836
Y00461997
X00010024
Y00484857
X-00012836Y00439137
X-00127136
Y00416277
X-00149996
X-00165496Y00416277
X-00164592Y00427482
Y00440182
X-00162514Y00453213
Y00465913
Y00478613
X-00190708
Y00465913
Y00453213
X-00188356Y00440147
Y00427447
Y00416277
X-0020955Y004445
X-002286Y0043914
Y00462
Y0048486
X-00127136Y00484857
Y00461997
X-00149996Y00439137
X-00251414Y0041628
X-00274274
X-00297134
X-00319994
X-00342854
X-00365714
X-00388574
X-00411434
X-00434294
X-00457154
X-004572Y0043914
X-0043434
X-0041148
X-0038862
X-0036576
X-003429
X-0032004
X-0029718
X-0027432
Y00462
Y0048486
X-0029718
X-0032004
Y00462
X-0025146Y0048486
X-0050165Y004191
X-0054356
X-0056896
Y004445
X-00601106Y00455387
Y00478247
Y00432527
X-00623966
X-00646826
Y00455387
Y00478247
T02
X00069194Y00065757
X00201274Y00225777
X00268584
T03
X00178674Y-00079283
X00204074
X00229474
X00254874
X0027178Y-0003429
Y-0000889
X0029718
Y-0003429
X00153274Y-00079283
X-00552537Y-0003429
Y-0000889
X-00577937
Y-0003429
X-00565546Y00064227
X-00540146
X-00514746
X-00489346
X-00463946
X-00438546
X-00604662Y00090643
Y00116043
Y00141443
Y00166843
Y00192243
Y00217643
X-00616346Y00398237
X-00590946
X-00565546
X-00540146
X-00514746
X-00489346
X-0032577Y00309337
Y00283937
Y00258537
Y00233137
Y00207737
Y00182337
Y00156937
X-00262276Y00100047
X-00176754Y00140937
X-00151354
X-00125954
X-00100554
X-0005461Y0014097
X00040244Y00156937
Y00182337
Y00207737
Y00233137
Y00258537
Y00283937
Y00309337
X0015302Y00402047
X0017842
X0020382
X0022922
X0025462
X0028002
X00319136Y00375631
Y00350231
Y00324831
Y00299431
Y00274031
Y00248631
X0033082Y00068037
X0030542
X0028002
X0025462
X0022922
X0020382
X0020447Y00472009
X0017907
X0015367
X0022987
X0025527
X0028067
X-00302214Y00464389
X-00462234Y00472009
X-00487634
X-00513034
X-00538434
X-00563834
T05
X-00176926Y-00036103
X-00126126
T06
X00338914Y-0007122
X-00625456Y-00074423
X00338914Y00465017
X-00037609Y0045572
X-00250209
X-00625456Y00465017
M30
