G04*
G04 #@! TF.GenerationSoftware,Altium Limited,Altium Designer,23.4.1 (23)*
G04*
G04 Layer_Color=8388736*
%FSLAX44Y44*%
%MOMM*%
G71*
G04*
G04 #@! TF.SameCoordinates,827902E4-1926-4F04-AA28-A78990439785*
G04*
G04*
G04 #@! TF.FilePolarity,Negative*
G04*
G01*
G75*
%ADD41R,0.8000X2.0000*%
%ADD42R,0.8000X2.0000*%
%ADD43R,1.1400X1.4900*%
%ADD44R,1.7400X1.1900*%
%ADD45R,1.6032X1.3032*%
%ADD46R,1.7032X1.6032*%
%ADD47R,1.9532X0.9032*%
%ADD48R,1.7032X1.7032*%
%ADD49R,1.2032X1.8032*%
%ADD50R,1.7532X1.2032*%
%ADD51C,3.0000*%
%ADD52R,1.4900X1.1400*%
%ADD53R,1.5400X1.3400*%
%ADD54R,1.4900X1.2400*%
%ADD55R,0.8032X1.3532*%
%ADD56R,1.7032X4.2032*%
%ADD57R,1.3532X1.5032*%
%ADD58R,2.3400X0.9400*%
%ADD59R,2.4032X0.8532*%
%ADD60R,2.5032X0.8532*%
%ADD61R,1.2400X1.4900*%
%ADD62O,1.7432X2.2032*%
%ADD63R,1.7432X2.2032*%
%ADD64O,5.2032X3.2032*%
%ADD65O,3.2032X5.2032*%
%ADD66R,2.2032X1.7272*%
%ADD67O,2.2032X1.7272*%
%ADD68O,2.2032X1.7432*%
%ADD69O,1.7432X2.2032*%
%ADD70C,1.9032*%
%ADD71C,3.2032*%
%ADD72C,2.8032*%
%ADD73R,2.8032X2.8032*%
%ADD74C,0.8128*%
D41*
X-113484Y400619D02*
D03*
X-69484D02*
D03*
X-58484D02*
D03*
X-47484D02*
D03*
X-113484Y278619D02*
D03*
X-69484D02*
D03*
X-58484D02*
D03*
X-47484D02*
D03*
X-165484D02*
D03*
X-176484D02*
D03*
X-187484D02*
D03*
X-165484Y400619D02*
D03*
X-176484D02*
D03*
X-187484D02*
D03*
D42*
X-102484D02*
D03*
X-91484D02*
D03*
X-80484D02*
D03*
X-102484Y278619D02*
D03*
X-91484D02*
D03*
X-80484D02*
D03*
X-143484D02*
D03*
X-154484D02*
D03*
X-143484Y400619D02*
D03*
X-154484D02*
D03*
D43*
X-153100Y256540D02*
D03*
X-177100D02*
D03*
X-578420Y-60960D02*
D03*
X-554420D02*
D03*
X-524590Y37557D02*
D03*
X-548590D02*
D03*
X178500Y443230D02*
D03*
X269370D02*
D03*
X-374346Y207737D02*
D03*
Y309337D02*
D03*
Y57877D02*
D03*
X-563686Y367757D02*
D03*
X-556066Y441417D02*
D03*
X-512886D02*
D03*
X202500Y443230D02*
D03*
X88814Y238477D02*
D03*
X64814D02*
D03*
X89074Y258537D02*
D03*
X65074D02*
D03*
X-335236Y129257D02*
D03*
X-311236D02*
D03*
X-350346Y57877D02*
D03*
X-374456Y283937D02*
D03*
X-350456D02*
D03*
X-374456Y229327D02*
D03*
X-350456D02*
D03*
X-216996Y297907D02*
D03*
X-240996D02*
D03*
Y276317D02*
D03*
X-216996D02*
D03*
X-350346Y309337D02*
D03*
X-414674Y91009D02*
D03*
X-438674D02*
D03*
X-97740Y5807D02*
D03*
X-73740D02*
D03*
X-200484Y428717D02*
D03*
X-176484D02*
D03*
X-213948Y407127D02*
D03*
X-237948D02*
D03*
X-78436Y248377D02*
D03*
X-54436D02*
D03*
X-350346Y207737D02*
D03*
X64814Y218157D02*
D03*
X88814D02*
D03*
X89074Y283937D02*
D03*
X65074D02*
D03*
X89384Y157197D02*
D03*
X65384D02*
D03*
X89074Y309337D02*
D03*
X65074D02*
D03*
X88814Y332457D02*
D03*
X64814D02*
D03*
X-513604Y113869D02*
D03*
X-489604D02*
D03*
X-513604Y92279D02*
D03*
X-489604D02*
D03*
X293370Y443230D02*
D03*
X-532066Y441417D02*
D03*
X-497776Y367757D02*
D03*
X-521776D02*
D03*
X-488886Y441417D02*
D03*
X-539686Y367757D02*
D03*
X304864Y94707D02*
D03*
X280864D02*
D03*
D44*
X-362270Y466460D02*
D03*
X-402270D02*
D03*
X-362270Y480960D02*
D03*
X-402270D02*
D03*
X54534D02*
D03*
X94534D02*
D03*
X54534Y466460D02*
D03*
X94534D02*
D03*
D45*
X-300186Y-91413D02*
D03*
X-306686Y30587D02*
D03*
D46*
X-382686Y29087D02*
D03*
D47*
X-383936Y-61913D02*
D03*
Y-50913D02*
D03*
Y-39913D02*
D03*
Y-28913D02*
D03*
Y-17913D02*
D03*
Y-6913D02*
D03*
Y4087D02*
D03*
Y15087D02*
D03*
D48*
X-382686Y-86413D02*
D03*
D49*
X-291686Y28087D02*
D03*
D50*
X-275936Y-85413D02*
D03*
D51*
X-509270Y-69850D02*
D03*
X-81280Y462280D02*
D03*
X297800Y-80139D02*
D03*
D52*
X240650Y-51913D02*
D03*
X200010D02*
D03*
X179690D02*
D03*
X-334666Y84237D02*
D03*
X-156210Y169610D02*
D03*
X141584Y225077D02*
D03*
Y201077D02*
D03*
X-311656Y107977D02*
D03*
Y83977D02*
D03*
X-104536Y109247D02*
D03*
Y85247D02*
D03*
X220330Y-27913D02*
D03*
Y-51913D02*
D03*
X-604916Y274347D02*
D03*
Y250347D02*
D03*
X-156210Y193610D02*
D03*
X-237886Y59847D02*
D03*
Y83847D02*
D03*
X-334666Y108237D02*
D03*
X-155336Y66067D02*
D03*
Y42067D02*
D03*
X-192166Y85247D02*
D03*
Y109247D02*
D03*
X-46116Y83847D02*
D03*
Y59847D02*
D03*
X30480Y456630D02*
D03*
Y480630D02*
D03*
X-213976Y364141D02*
D03*
Y388141D02*
D03*
X-17166Y198537D02*
D03*
Y222537D02*
D03*
X-37486D02*
D03*
Y198537D02*
D03*
X240904Y233837D02*
D03*
Y257837D02*
D03*
X182224Y201077D02*
D03*
Y225077D02*
D03*
X161904D02*
D03*
Y201077D02*
D03*
X118110Y456630D02*
D03*
Y480630D02*
D03*
X-108346Y224947D02*
D03*
Y248947D02*
D03*
X-67706Y66067D02*
D03*
Y42067D02*
D03*
X-591056Y345597D02*
D03*
Y369597D02*
D03*
X-576580Y90170D02*
D03*
Y114170D02*
D03*
X179690Y-27913D02*
D03*
X200010D02*
D03*
X240650D02*
D03*
X-425450Y480630D02*
D03*
Y456630D02*
D03*
X-339090Y480630D02*
D03*
Y456630D02*
D03*
X178674Y374677D02*
D03*
Y350677D02*
D03*
X204074D02*
D03*
Y374677D02*
D03*
X342394Y184177D02*
D03*
Y160177D02*
D03*
X320804D02*
D03*
Y184177D02*
D03*
D53*
X-17166Y249907D02*
D03*
Y281907D02*
D03*
X-128776Y44417D02*
D03*
Y76417D02*
D03*
X-215026Y44417D02*
D03*
Y76417D02*
D03*
X-132476Y242787D02*
D03*
Y210787D02*
D03*
D54*
X-237886Y40667D02*
D03*
Y16667D02*
D03*
X-24130Y83690D02*
D03*
Y59690D02*
D03*
D55*
X-192776Y41567D02*
D03*
X-183276D02*
D03*
X-173776D02*
D03*
Y66567D02*
D03*
X-192776D02*
D03*
X-105146D02*
D03*
X-86146D02*
D03*
Y41567D02*
D03*
X-95646D02*
D03*
X-105146D02*
D03*
D56*
X-204734Y471897D02*
D03*
X-148284D02*
D03*
X-176484D02*
D03*
D57*
X-84476Y225517D02*
D03*
X-53476D02*
D03*
X-156866Y-1813D02*
D03*
X-125866D02*
D03*
D58*
X157084Y245837D02*
D03*
Y258537D02*
D03*
Y271237D02*
D03*
Y283937D02*
D03*
X214484D02*
D03*
Y271237D02*
D03*
Y258537D02*
D03*
Y245837D02*
D03*
D59*
X-164526Y231747D02*
D03*
D60*
X-165026Y216747D02*
D03*
D61*
X348550Y-14513D02*
D03*
X324550D02*
D03*
X-605356D02*
D03*
X-629356D02*
D03*
X348550Y10887D02*
D03*
X324550D02*
D03*
X-605356Y11147D02*
D03*
X-629356D02*
D03*
D62*
X280670Y472009D02*
D03*
X255270D02*
D03*
X179070D02*
D03*
X204470D02*
D03*
X229870D02*
D03*
X330820Y68037D02*
D03*
X305420D02*
D03*
X280020D02*
D03*
X254620D02*
D03*
X229220D02*
D03*
X203820D02*
D03*
X-616346Y398237D02*
D03*
X-590946D02*
D03*
X-565546D02*
D03*
X-540146D02*
D03*
X-514746D02*
D03*
X-489346D02*
D03*
X229474Y-79283D02*
D03*
X204074D02*
D03*
X-538434Y472009D02*
D03*
X-513034D02*
D03*
X-151354Y140937D02*
D03*
X-487634Y472009D02*
D03*
X-462234D02*
D03*
X153274Y-79283D02*
D03*
X178674D02*
D03*
X-125954Y140937D02*
D03*
X-176754D02*
D03*
D63*
X153670Y472009D02*
D03*
X254874Y-79283D02*
D03*
X-563834Y472009D02*
D03*
X-100554Y140937D02*
D03*
D64*
X0Y0D02*
D03*
Y-58000D02*
D03*
D65*
X48000Y-30000D02*
D03*
D66*
X297180Y-8890D02*
D03*
Y-34290D02*
D03*
X-577937Y-8890D02*
D03*
Y-34290D02*
D03*
D67*
X271780Y-8890D02*
D03*
Y-34290D02*
D03*
X-552537Y-8890D02*
D03*
Y-34290D02*
D03*
D68*
X40244Y283937D02*
D03*
Y156937D02*
D03*
Y182337D02*
D03*
Y207737D02*
D03*
Y233137D02*
D03*
Y258537D02*
D03*
X319136Y248631D02*
D03*
Y274031D02*
D03*
Y299431D02*
D03*
Y324831D02*
D03*
Y350231D02*
D03*
Y375631D02*
D03*
X40244Y309337D02*
D03*
X-325770Y182337D02*
D03*
Y309337D02*
D03*
Y283937D02*
D03*
Y258537D02*
D03*
Y233137D02*
D03*
Y207737D02*
D03*
X-604662Y217643D02*
D03*
Y192243D02*
D03*
Y166843D02*
D03*
Y141443D02*
D03*
Y116043D02*
D03*
Y90643D02*
D03*
X-325770Y156937D02*
D03*
D69*
X153020Y402047D02*
D03*
X178420D02*
D03*
X203820D02*
D03*
X229220D02*
D03*
X254620D02*
D03*
X280020D02*
D03*
X-438546Y64227D02*
D03*
X-463946D02*
D03*
X-489346D02*
D03*
X-514746D02*
D03*
X-540146D02*
D03*
X-565546D02*
D03*
D70*
X-302214Y464389D02*
D03*
X-262276Y100047D02*
D03*
X-54610Y140970D02*
D03*
D71*
X338914Y465017D02*
D03*
X-625456Y465017D02*
D03*
X338914Y-71220D02*
D03*
X-625456Y-74423D02*
D03*
X-250209Y455720D02*
D03*
X-37609D02*
D03*
D72*
X-176926Y-36103D02*
D03*
D73*
X-126126D02*
D03*
D74*
X113030Y441960D02*
D03*
M02*
