G04*
G04 #@! TF.GenerationSoftware,Altium Limited,Altium Designer,23.4.1 (23)*
G04*
G04 Layer_Color=16711935*
%FSLAX44Y44*%
%MOMM*%
G71*
G04*
G04 #@! TF.SameCoordinates,827902E4-1926-4F04-AA28-A78990439785*
G04*
G04*
G04 #@! TF.FilePolarity,Negative*
G04*
G01*
G75*
%ADD56R,1.7032X4.2032*%
%ADD62O,1.7432X2.2032*%
%ADD63R,1.7432X2.2032*%
%ADD64O,5.2032X3.2032*%
%ADD65O,3.2032X5.2032*%
%ADD66R,2.2032X1.7272*%
%ADD67O,2.2032X1.7272*%
%ADD68O,2.2032X1.7432*%
%ADD69O,1.7432X2.2032*%
%ADD70C,1.9032*%
%ADD71C,3.2032*%
%ADD72C,2.8032*%
%ADD73R,2.8032X2.8032*%
%ADD74C,0.8128*%
D56*
X-148234Y471897D02*
D03*
X-204734D02*
D03*
D62*
X280670Y472009D02*
D03*
X255270D02*
D03*
X179070D02*
D03*
X204470D02*
D03*
X229870D02*
D03*
X330820Y68037D02*
D03*
X305420D02*
D03*
X280020D02*
D03*
X254620D02*
D03*
X229220D02*
D03*
X203820D02*
D03*
X-616346Y398237D02*
D03*
X-590946D02*
D03*
X-565546D02*
D03*
X-540146D02*
D03*
X-514746D02*
D03*
X-489346D02*
D03*
X229474Y-79283D02*
D03*
X204074D02*
D03*
X-538434Y472009D02*
D03*
X-513034D02*
D03*
X-151354Y140937D02*
D03*
X-487634Y472009D02*
D03*
X-462234D02*
D03*
X153274Y-79283D02*
D03*
X178674D02*
D03*
X-125954Y140937D02*
D03*
X-176754D02*
D03*
D63*
X153670Y472009D02*
D03*
X254874Y-79283D02*
D03*
X-563834Y472009D02*
D03*
X-100554Y140937D02*
D03*
D64*
X0Y0D02*
D03*
Y-58000D02*
D03*
D65*
X48000Y-30000D02*
D03*
D66*
X297180Y-8890D02*
D03*
Y-34290D02*
D03*
X-577937Y-8890D02*
D03*
Y-34290D02*
D03*
D67*
X271780Y-8890D02*
D03*
Y-34290D02*
D03*
X-552537Y-8890D02*
D03*
Y-34290D02*
D03*
D68*
X40244Y283937D02*
D03*
Y156937D02*
D03*
Y182337D02*
D03*
Y207737D02*
D03*
Y233137D02*
D03*
Y258537D02*
D03*
X319136Y248631D02*
D03*
Y274031D02*
D03*
Y299431D02*
D03*
Y324831D02*
D03*
Y350231D02*
D03*
Y375631D02*
D03*
X40244Y309337D02*
D03*
X-325770Y182337D02*
D03*
Y309337D02*
D03*
Y283937D02*
D03*
Y258537D02*
D03*
Y233137D02*
D03*
Y207737D02*
D03*
X-604662Y217643D02*
D03*
Y192243D02*
D03*
Y166843D02*
D03*
Y141443D02*
D03*
Y116043D02*
D03*
Y90643D02*
D03*
X-325770Y156937D02*
D03*
D69*
X153020Y402047D02*
D03*
X178420D02*
D03*
X203820D02*
D03*
X229220D02*
D03*
X254620D02*
D03*
X280020D02*
D03*
X-438546Y64227D02*
D03*
X-463946D02*
D03*
X-489346D02*
D03*
X-514746D02*
D03*
X-540146D02*
D03*
X-565546D02*
D03*
D70*
X-302214Y464389D02*
D03*
X-262276Y100047D02*
D03*
X-54610Y140970D02*
D03*
D71*
X338914Y465017D02*
D03*
X-625456Y465017D02*
D03*
X338914Y-71220D02*
D03*
X-625456Y-74423D02*
D03*
X-250209Y455720D02*
D03*
X-37609D02*
D03*
D72*
X-176926Y-36103D02*
D03*
D73*
X-126126D02*
D03*
D74*
X113030Y441960D02*
D03*
M02*
