G04*
G04 #@! TF.GenerationSoftware,Altium Limited,Altium Designer,23.4.1 (23)*
G04*
G04 Layer_Physical_Order=2*
G04 Layer_Color=16711680*
%FSLAX44Y44*%
%MOMM*%
G71*
G04*
G04 #@! TF.SameCoordinates,827902E4-1926-4F04-AA28-A78990439785*
G04*
G04*
G04 #@! TF.FilePolarity,Positive*
G04*
G01*
G75*
%ADD13C,0.2032*%
%ADD35R,1.5000X4.0000*%
%ADD85C,0.4064*%
%ADD87O,1.5400X2.0000*%
%ADD88R,1.5400X2.0000*%
%ADD89O,5.0000X3.0000*%
%ADD90O,3.0000X5.0000*%
%ADD91R,2.0000X1.5240*%
%ADD92O,2.0000X1.5240*%
%ADD93O,2.0000X1.5400*%
%ADD94O,1.5400X2.0000*%
%ADD95C,1.7000*%
%ADD96C,3.0000*%
%ADD97C,2.6000*%
%ADD98R,2.6000X2.6000*%
%ADD99C,0.6096*%
%ADD100C,0.8000*%
%ADD101C,1.0160*%
G36*
X367030Y-102870D02*
X-654050D01*
Y492760D01*
X367030Y492760D01*
Y-102870D01*
D02*
G37*
%LPC*%
G36*
X-459694Y484303D02*
Y474549D01*
X-451938D01*
X-452258Y476982D01*
X-453290Y479473D01*
X-454931Y481612D01*
X-457070Y483254D01*
X-459561Y484285D01*
X-459694Y484303D01*
D02*
G37*
G36*
X-464774D02*
X-464907Y484285D01*
X-467398Y483254D01*
X-469538Y481612D01*
X-471179Y479473D01*
X-472211Y476982D01*
X-472531Y474549D01*
X-464774D01*
Y484303D01*
D02*
G37*
G36*
X283210Y484303D02*
Y474549D01*
X290967D01*
X290646Y476982D01*
X289615Y479473D01*
X287973Y481612D01*
X285834Y483254D01*
X283343Y484285D01*
X283210Y484303D01*
D02*
G37*
G36*
X278130Y484303D02*
X277997Y484285D01*
X275506Y483254D01*
X273367Y481612D01*
X271725Y479473D01*
X270694Y476982D01*
X270373Y474549D01*
X278130D01*
Y484303D01*
D02*
G37*
G36*
X-299674Y475138D02*
Y466929D01*
X-291465D01*
X-291927Y468650D01*
X-293380Y471168D01*
X-295436Y473223D01*
X-297953Y474677D01*
X-299674Y475138D01*
D02*
G37*
G36*
X-304754Y475138D02*
X-306476Y474677D01*
X-308993Y473223D01*
X-311049Y471168D01*
X-312502Y468650D01*
X-312963Y466929D01*
X-304754D01*
Y475138D01*
D02*
G37*
G36*
X278130Y469469D02*
X270373D01*
X270694Y467036D01*
X271725Y464545D01*
X273367Y462406D01*
X275506Y460764D01*
X277997Y459733D01*
X278130Y459715D01*
Y469469D01*
D02*
G37*
G36*
X290967D02*
X283210D01*
Y459715D01*
X283343Y459733D01*
X285834Y460764D01*
X287973Y462406D01*
X289615Y464545D01*
X290646Y467036D01*
X290967Y469469D01*
D02*
G37*
G36*
X-451937Y469469D02*
X-459694D01*
Y459715D01*
X-459561Y459733D01*
X-457070Y460764D01*
X-454931Y462406D01*
X-453290Y464545D01*
X-452258Y467036D01*
X-451937Y469469D01*
D02*
G37*
G36*
X-464774D02*
X-472531D01*
X-472211Y467036D01*
X-471179Y464545D01*
X-469538Y462406D01*
X-467398Y460764D01*
X-464907Y459733D01*
X-464774Y459715D01*
Y469469D01*
D02*
G37*
G36*
X-553086Y485057D02*
X-574582D01*
Y458961D01*
X-553086D01*
Y485057D01*
D02*
G37*
G36*
X204470Y485150D02*
X201664Y484780D01*
X199050Y483697D01*
X196805Y481974D01*
X195082Y479729D01*
X193999Y477115D01*
X193629Y474309D01*
Y469709D01*
X193999Y466903D01*
X195082Y464289D01*
X196805Y462043D01*
X199050Y460321D01*
X201664Y459238D01*
X204470Y458868D01*
X207276Y459238D01*
X209890Y460321D01*
X212136Y462043D01*
X213858Y464289D01*
X214941Y466903D01*
X215311Y469709D01*
Y474309D01*
X214941Y477115D01*
X213858Y479729D01*
X212136Y481974D01*
X209890Y483697D01*
X207276Y484780D01*
X204470Y485150D01*
D02*
G37*
G36*
X179070D02*
X176264Y484780D01*
X173650Y483697D01*
X171404Y481974D01*
X169682Y479729D01*
X168599Y477115D01*
X168229Y474309D01*
Y469709D01*
X168599Y466903D01*
X169682Y464289D01*
X171404Y462043D01*
X173650Y460321D01*
X176264Y459238D01*
X179070Y458868D01*
X181876Y459238D01*
X184490Y460321D01*
X186735Y462043D01*
X188458Y464289D01*
X189541Y466903D01*
X189911Y469709D01*
Y474309D01*
X189541Y477115D01*
X188458Y479729D01*
X186735Y481974D01*
X184490Y483697D01*
X181876Y484780D01*
X179070Y485150D01*
D02*
G37*
G36*
X-487634Y485150D02*
X-490440Y484780D01*
X-493055Y483697D01*
X-495300Y481974D01*
X-497023Y479729D01*
X-498106Y477115D01*
X-498475Y474309D01*
Y469709D01*
X-498106Y466903D01*
X-497023Y464289D01*
X-495300Y462043D01*
X-493055Y460321D01*
X-490440Y459238D01*
X-487634Y458868D01*
X-484828Y459238D01*
X-482214Y460321D01*
X-479969Y462043D01*
X-478246Y464289D01*
X-477163Y466903D01*
X-476794Y469709D01*
Y474309D01*
X-477163Y477115D01*
X-478246Y479729D01*
X-479969Y481974D01*
X-482214Y483697D01*
X-484828Y484780D01*
X-487634Y485150D01*
D02*
G37*
G36*
X-513034D02*
X-515840Y484780D01*
X-518455Y483697D01*
X-520700Y481974D01*
X-522423Y479729D01*
X-523506Y477115D01*
X-523875Y474309D01*
Y469709D01*
X-523506Y466903D01*
X-522423Y464289D01*
X-520700Y462043D01*
X-518455Y460321D01*
X-515840Y459238D01*
X-513034Y458868D01*
X-510229Y459238D01*
X-507614Y460321D01*
X-505369Y462043D01*
X-503646Y464289D01*
X-502563Y466903D01*
X-502194Y469709D01*
Y474309D01*
X-502563Y477115D01*
X-503646Y479729D01*
X-505369Y481974D01*
X-507614Y483697D01*
X-510229Y484780D01*
X-513034Y485150D01*
D02*
G37*
G36*
X-538434D02*
X-541240Y484780D01*
X-543855Y483697D01*
X-546100Y481974D01*
X-547823Y479729D01*
X-548906Y477115D01*
X-549275Y474309D01*
Y469709D01*
X-548906Y466903D01*
X-547823Y464289D01*
X-546100Y462043D01*
X-543855Y460321D01*
X-541240Y459238D01*
X-538434Y458868D01*
X-535629Y459238D01*
X-533014Y460321D01*
X-530769Y462043D01*
X-529046Y464289D01*
X-527963Y466903D01*
X-527594Y469709D01*
Y474309D01*
X-527963Y477115D01*
X-529046Y479729D01*
X-530769Y481974D01*
X-533014Y483697D01*
X-535629Y484780D01*
X-538434Y485150D01*
D02*
G37*
G36*
X-291465Y461849D02*
X-299674D01*
Y453640D01*
X-297953Y454101D01*
X-295436Y455555D01*
X-293380Y457610D01*
X-291927Y460128D01*
X-291465Y461849D01*
D02*
G37*
G36*
X-304754D02*
X-312963D01*
X-312502Y460128D01*
X-311049Y457610D01*
X-308993Y455555D01*
X-306476Y454101D01*
X-304754Y453640D01*
Y461849D01*
D02*
G37*
G36*
X340691Y483065D02*
X337136D01*
X333649Y482372D01*
X330365Y481011D01*
X327409Y479036D01*
X324895Y476522D01*
X322920Y473566D01*
X321559Y470282D01*
X320866Y466795D01*
Y463240D01*
X321559Y459753D01*
X322920Y456468D01*
X324895Y453512D01*
X327409Y450998D01*
X330365Y449023D01*
X333649Y447663D01*
X337136Y446969D01*
X340691D01*
X344178Y447663D01*
X347463Y449023D01*
X350419Y450998D01*
X352933Y453512D01*
X354908Y456468D01*
X356268Y459753D01*
X356962Y463240D01*
Y466795D01*
X356268Y470282D01*
X354908Y473566D01*
X352933Y476522D01*
X350419Y479036D01*
X347463Y481011D01*
X344178Y482372D01*
X340691Y483065D01*
D02*
G37*
G36*
X-623679Y483065D02*
X-627234D01*
X-630721Y482371D01*
X-634005Y481011D01*
X-636961Y479036D01*
X-639475Y476522D01*
X-641450Y473566D01*
X-642811Y470281D01*
X-643504Y466795D01*
Y463239D01*
X-642811Y459753D01*
X-641450Y456468D01*
X-639475Y453512D01*
X-636961Y450998D01*
X-634005Y449023D01*
X-630721Y447663D01*
X-627234Y446969D01*
X-623679D01*
X-620192Y447663D01*
X-616907Y449023D01*
X-613951Y450998D01*
X-611437Y453512D01*
X-609462Y456468D01*
X-608102Y459753D01*
X-607408Y463239D01*
Y466795D01*
X-608102Y470281D01*
X-609462Y473566D01*
X-611437Y476522D01*
X-613951Y479036D01*
X-616907Y481011D01*
X-620192Y482371D01*
X-623679Y483065D01*
D02*
G37*
G36*
X-35831Y473768D02*
X-39386D01*
X-42873Y473074D01*
X-46158Y471714D01*
X-49114Y469739D01*
X-51627Y467225D01*
X-53603Y464269D01*
X-54963Y460984D01*
X-55657Y457497D01*
Y453942D01*
X-54963Y450455D01*
X-53603Y447171D01*
X-51627Y444215D01*
X-49114Y441701D01*
X-46158Y439726D01*
X-42873Y438365D01*
X-39386Y437672D01*
X-35831D01*
X-32344Y438365D01*
X-29060Y439726D01*
X-26104Y441701D01*
X-23590Y444215D01*
X-21615Y447171D01*
X-20254Y450455D01*
X-19561Y453942D01*
Y457497D01*
X-20254Y460984D01*
X-21615Y464269D01*
X-23590Y467225D01*
X-26104Y469739D01*
X-29060Y471714D01*
X-32344Y473074D01*
X-35831Y473768D01*
D02*
G37*
G36*
X-248431D02*
X-251986D01*
X-255473Y473074D01*
X-258758Y471714D01*
X-261714Y469739D01*
X-264228Y467225D01*
X-266203Y464269D01*
X-267563Y460984D01*
X-268257Y457497D01*
Y453942D01*
X-267563Y450455D01*
X-266203Y447171D01*
X-264228Y444215D01*
X-261714Y441701D01*
X-258758Y439726D01*
X-255473Y438365D01*
X-251986Y437672D01*
X-248431D01*
X-244944Y438365D01*
X-241660Y439726D01*
X-238704Y441701D01*
X-236190Y444215D01*
X-234215Y447171D01*
X-232854Y450455D01*
X-232161Y453942D01*
Y457497D01*
X-232854Y460984D01*
X-234215Y464269D01*
X-236190Y467225D01*
X-238704Y469739D01*
X-241660Y471714D01*
X-244944Y473074D01*
X-248431Y473768D01*
D02*
G37*
G36*
X282560Y414341D02*
Y404587D01*
X290317D01*
X289996Y407020D01*
X288964Y409511D01*
X287323Y411650D01*
X285184Y413292D01*
X282693Y414323D01*
X282560Y414341D01*
D02*
G37*
G36*
X277480D02*
X277346Y414323D01*
X274855Y413292D01*
X272717Y411650D01*
X271075Y409511D01*
X270043Y407020D01*
X269723Y404587D01*
X277480D01*
Y414341D01*
D02*
G37*
G36*
X-486806Y410531D02*
Y400777D01*
X-479049D01*
X-479370Y403210D01*
X-480402Y405701D01*
X-482043Y407840D01*
X-484182Y409482D01*
X-486673Y410513D01*
X-486806Y410531D01*
D02*
G37*
G36*
X-613806D02*
Y400777D01*
X-606049D01*
X-606370Y403210D01*
X-607402Y405701D01*
X-609043Y407840D01*
X-611182Y409482D01*
X-613673Y410513D01*
X-613806Y410531D01*
D02*
G37*
G36*
X-491886Y410531D02*
X-492020Y410513D01*
X-494510Y409482D01*
X-496650Y407840D01*
X-498291Y405701D01*
X-499323Y403210D01*
X-499643Y400777D01*
X-491886D01*
Y410531D01*
D02*
G37*
G36*
X-618886D02*
X-619020Y410513D01*
X-621511Y409482D01*
X-623649Y407840D01*
X-625291Y405701D01*
X-626323Y403210D01*
X-626643Y400777D01*
X-618886D01*
Y410531D01*
D02*
G37*
G36*
X290317Y399507D02*
X282560D01*
Y389753D01*
X282693Y389771D01*
X285184Y390802D01*
X287323Y392444D01*
X288964Y394583D01*
X289996Y397074D01*
X290317Y399507D01*
D02*
G37*
G36*
X277480D02*
X269723D01*
X270043Y397074D01*
X271075Y394583D01*
X272717Y392444D01*
X274855Y390802D01*
X277346Y389771D01*
X277480Y389753D01*
Y399507D01*
D02*
G37*
G36*
X255270Y485150D02*
X252464Y484780D01*
X249850Y483697D01*
X247605Y481974D01*
X245882Y479729D01*
X244799Y477115D01*
X244429Y474309D01*
Y469709D01*
X244799Y466903D01*
X245882Y464289D01*
X247605Y462043D01*
X249850Y460321D01*
X250801Y459926D01*
Y414399D01*
X249199Y413735D01*
X246954Y412012D01*
X245231Y409767D01*
X244148Y407153D01*
X243779Y404347D01*
Y399747D01*
X244148Y396941D01*
X245231Y394327D01*
X246954Y392081D01*
X249199Y390359D01*
X251814Y389276D01*
X254620Y388906D01*
X257425Y389276D01*
X260040Y390359D01*
X262285Y392081D01*
X264008Y394327D01*
X265091Y396941D01*
X265460Y399747D01*
Y404347D01*
X265091Y407153D01*
X264008Y409767D01*
X262285Y412012D01*
X260040Y413735D01*
X259088Y414129D01*
Y459657D01*
X260690Y460321D01*
X262936Y462043D01*
X264658Y464289D01*
X265741Y466903D01*
X266111Y469709D01*
Y474309D01*
X265741Y477115D01*
X264658Y479729D01*
X262936Y481974D01*
X260690Y483697D01*
X258076Y484780D01*
X255270Y485150D01*
D02*
G37*
G36*
X229870D02*
X227064Y484780D01*
X224450Y483697D01*
X222204Y481974D01*
X220482Y479729D01*
X219399Y477115D01*
X219029Y474309D01*
Y469709D01*
X219399Y466903D01*
X220482Y464289D01*
X222204Y462043D01*
X224450Y460321D01*
X225401Y459926D01*
Y414399D01*
X223799Y413735D01*
X221554Y412012D01*
X219831Y409767D01*
X218748Y407153D01*
X218379Y404347D01*
Y399747D01*
X218748Y396941D01*
X219831Y394327D01*
X221554Y392081D01*
X223799Y390359D01*
X226414Y389276D01*
X229220Y388906D01*
X232026Y389276D01*
X234640Y390359D01*
X236885Y392081D01*
X238608Y394327D01*
X239691Y396941D01*
X240060Y399747D01*
Y404347D01*
X239691Y407153D01*
X238608Y409767D01*
X236885Y412012D01*
X234640Y413735D01*
X233689Y414129D01*
Y459657D01*
X235290Y460321D01*
X237535Y462043D01*
X239258Y464289D01*
X240341Y466903D01*
X240711Y469709D01*
Y474309D01*
X240341Y477115D01*
X239258Y479729D01*
X237535Y481974D01*
X235290Y483697D01*
X232676Y484780D01*
X229870Y485150D01*
D02*
G37*
G36*
X203820Y415188D02*
X201014Y414818D01*
X198399Y413735D01*
X196154Y412012D01*
X194431Y409767D01*
X193348Y407153D01*
X192979Y404347D01*
Y399747D01*
X193348Y396941D01*
X194431Y394327D01*
X196154Y392081D01*
X198399Y390359D01*
X201014Y389276D01*
X203820Y388906D01*
X206625Y389276D01*
X209240Y390359D01*
X211485Y392081D01*
X213208Y394327D01*
X214291Y396941D01*
X214660Y399747D01*
Y404347D01*
X214291Y407153D01*
X213208Y409767D01*
X211485Y412012D01*
X209240Y413735D01*
X206625Y414818D01*
X203820Y415188D01*
D02*
G37*
G36*
X164418Y485057D02*
X142922D01*
Y476584D01*
X119380D01*
X117794Y476268D01*
X116450Y475370D01*
X110100Y469020D01*
X109202Y467676D01*
X108886Y466090D01*
Y446437D01*
X107862Y445413D01*
X106934Y443173D01*
Y440747D01*
X107862Y438507D01*
X109577Y436792D01*
X111817Y435864D01*
X114243D01*
X116483Y436792D01*
X118198Y438507D01*
X119126Y440747D01*
Y443173D01*
X118198Y445413D01*
X117174Y446437D01*
Y464374D01*
X121096Y468296D01*
X142922D01*
Y458961D01*
X145472D01*
Y452120D01*
X145751Y449998D01*
X146570Y448021D01*
X147873Y446323D01*
X170222Y423974D01*
Y411318D01*
X169031Y409767D01*
X167948Y407153D01*
X167579Y404347D01*
Y399747D01*
X167948Y396941D01*
X169031Y394327D01*
X170754Y392081D01*
X172999Y390359D01*
X175614Y389276D01*
X178420Y388906D01*
X181225Y389276D01*
X183840Y390359D01*
X186085Y392081D01*
X187808Y394327D01*
X188891Y396941D01*
X189260Y399747D01*
Y404347D01*
X188891Y407153D01*
X187808Y409767D01*
X186618Y411318D01*
Y427370D01*
X186339Y429492D01*
X185520Y431469D01*
X184217Y433167D01*
X161868Y455516D01*
Y458961D01*
X164418D01*
Y485057D01*
D02*
G37*
G36*
X153020Y415188D02*
X150214Y414818D01*
X147599Y413735D01*
X145354Y412012D01*
X143631Y409767D01*
X142548Y407153D01*
X142179Y404347D01*
Y399747D01*
X142548Y396941D01*
X143631Y394327D01*
X145354Y392081D01*
X147599Y390359D01*
X150214Y389276D01*
X153020Y388906D01*
X155826Y389276D01*
X158440Y390359D01*
X160685Y392081D01*
X162408Y394327D01*
X163491Y396941D01*
X163860Y399747D01*
Y404347D01*
X163491Y407153D01*
X162408Y409767D01*
X160685Y412012D01*
X158440Y413735D01*
X155826Y414818D01*
X153020Y415188D01*
D02*
G37*
G36*
X-479049Y395697D02*
X-486806D01*
Y385943D01*
X-486673Y385961D01*
X-484182Y386992D01*
X-482043Y388634D01*
X-480402Y390773D01*
X-479370Y393264D01*
X-479049Y395697D01*
D02*
G37*
G36*
X-606049D02*
X-613806D01*
Y385943D01*
X-613673Y385961D01*
X-611182Y386992D01*
X-609043Y388634D01*
X-607402Y390773D01*
X-606370Y393264D01*
X-606049Y395697D01*
D02*
G37*
G36*
X-491886D02*
X-499643D01*
X-499323Y393264D01*
X-498291Y390773D01*
X-496650Y388634D01*
X-494510Y386992D01*
X-492020Y385961D01*
X-491886Y385943D01*
Y395697D01*
D02*
G37*
G36*
X-618886D02*
X-626643D01*
X-626323Y393264D01*
X-625291Y390773D01*
X-623649Y388634D01*
X-621511Y386992D01*
X-619020Y385961D01*
X-618886Y385943D01*
Y395697D01*
D02*
G37*
G36*
X-514746Y411378D02*
X-517552Y411008D01*
X-520167Y409925D01*
X-522412Y408203D01*
X-524135Y405957D01*
X-525218Y403343D01*
X-525587Y400537D01*
Y395937D01*
X-525218Y393131D01*
X-524135Y390517D01*
X-522412Y388271D01*
X-520167Y386549D01*
X-517552Y385466D01*
X-514746Y385096D01*
X-511940Y385466D01*
X-509326Y386549D01*
X-507081Y388271D01*
X-505358Y390517D01*
X-504275Y393131D01*
X-503906Y395937D01*
Y400537D01*
X-504275Y403343D01*
X-505358Y405957D01*
X-507081Y408203D01*
X-509326Y409925D01*
X-511940Y411008D01*
X-514746Y411378D01*
D02*
G37*
G36*
X-540146D02*
X-542952Y411008D01*
X-545567Y409925D01*
X-547812Y408203D01*
X-549535Y405957D01*
X-550618Y403343D01*
X-550987Y400537D01*
Y395937D01*
X-550618Y393131D01*
X-549535Y390517D01*
X-547812Y388271D01*
X-545567Y386549D01*
X-542952Y385466D01*
X-540146Y385096D01*
X-537341Y385466D01*
X-534726Y386549D01*
X-532481Y388271D01*
X-530758Y390517D01*
X-529675Y393131D01*
X-529306Y395937D01*
Y400537D01*
X-529675Y403343D01*
X-530758Y405957D01*
X-532481Y408203D01*
X-534726Y409925D01*
X-537341Y411008D01*
X-540146Y411378D01*
D02*
G37*
G36*
X-590946D02*
X-593752Y411008D01*
X-596367Y409925D01*
X-598612Y408203D01*
X-600335Y405957D01*
X-601418Y403343D01*
X-601787Y400537D01*
Y395937D01*
X-601418Y393131D01*
X-600335Y390517D01*
X-598612Y388271D01*
X-596367Y386549D01*
X-593752Y385466D01*
X-590946Y385096D01*
X-588140Y385466D01*
X-585526Y386549D01*
X-583281Y388271D01*
X-581558Y390517D01*
X-580475Y393131D01*
X-580106Y395937D01*
Y400537D01*
X-580475Y403343D01*
X-581558Y405957D01*
X-583281Y408203D01*
X-585526Y409925D01*
X-588140Y411008D01*
X-590946Y411378D01*
D02*
G37*
G36*
X321436Y386472D02*
X316836D01*
X314030Y386102D01*
X311415Y385019D01*
X309170Y383297D01*
X307447Y381051D01*
X306364Y378437D01*
X305995Y375631D01*
X306364Y372825D01*
X307447Y370211D01*
X309170Y367965D01*
X311415Y366243D01*
X314030Y365160D01*
X316836Y364790D01*
X321436D01*
X324241Y365160D01*
X326856Y366243D01*
X329101Y367965D01*
X330824Y370211D01*
X331907Y372825D01*
X332276Y375631D01*
X331907Y378437D01*
X330824Y381051D01*
X329101Y383297D01*
X326856Y385019D01*
X324241Y386102D01*
X321436Y386472D01*
D02*
G37*
G36*
Y361072D02*
X316836D01*
X314030Y360702D01*
X311415Y359619D01*
X309170Y357896D01*
X307447Y355651D01*
X306364Y353037D01*
X305995Y350231D01*
X306364Y347425D01*
X307447Y344811D01*
X309170Y342565D01*
X311415Y340843D01*
X314030Y339760D01*
X316836Y339390D01*
X321436D01*
X324241Y339760D01*
X326856Y340843D01*
X329101Y342565D01*
X330824Y344811D01*
X331907Y347425D01*
X332276Y350231D01*
X331907Y353037D01*
X330824Y355651D01*
X329101Y357896D01*
X326856Y359619D01*
X324241Y360702D01*
X321436Y361072D01*
D02*
G37*
G36*
X-565546Y411378D02*
X-568352Y411008D01*
X-570967Y409925D01*
X-573212Y408203D01*
X-574935Y405957D01*
X-576018Y403343D01*
X-576387Y400537D01*
Y395937D01*
X-576018Y393131D01*
X-574935Y390517D01*
X-573212Y388271D01*
X-570967Y386549D01*
X-569745Y386043D01*
Y343079D01*
X-570824Y342000D01*
X-571752Y339759D01*
Y337334D01*
X-570824Y335094D01*
X-569109Y333379D01*
X-566869Y332451D01*
X-564444D01*
X-562203Y333379D01*
X-560488Y335094D01*
X-559560Y337334D01*
Y339759D01*
X-560488Y342000D01*
X-561458Y342969D01*
Y385997D01*
X-560126Y386549D01*
X-557881Y388271D01*
X-556158Y390517D01*
X-555075Y393131D01*
X-554706Y395937D01*
Y400537D01*
X-555075Y403343D01*
X-556158Y405957D01*
X-557881Y408203D01*
X-560126Y409925D01*
X-562741Y411008D01*
X-565546Y411378D01*
D02*
G37*
G36*
X321436Y335672D02*
X316836D01*
X314030Y335302D01*
X311415Y334219D01*
X309170Y332496D01*
X307447Y330251D01*
X306364Y327637D01*
X305995Y324831D01*
X306364Y322025D01*
X307447Y319411D01*
X309170Y317165D01*
X311415Y315443D01*
X314030Y314360D01*
X316836Y313990D01*
X321436D01*
X324241Y314360D01*
X326856Y315443D01*
X329101Y317165D01*
X330824Y319411D01*
X331907Y322025D01*
X332276Y324831D01*
X331907Y327637D01*
X330824Y330251D01*
X329101Y332496D01*
X326856Y334219D01*
X324241Y335302D01*
X321436Y335672D01*
D02*
G37*
G36*
X42544Y320178D02*
X37944D01*
X35138Y319808D01*
X32523Y318725D01*
X30278Y317003D01*
X28555Y314757D01*
X27472Y312143D01*
X27103Y309337D01*
X27472Y306531D01*
X28555Y303917D01*
X30278Y301671D01*
X32523Y299949D01*
X35138Y298866D01*
X37944Y298496D01*
X42544D01*
X45349Y298866D01*
X47964Y299949D01*
X50209Y301671D01*
X51932Y303917D01*
X53015Y306531D01*
X53384Y309337D01*
X53015Y312143D01*
X51932Y314757D01*
X50209Y317003D01*
X47964Y318725D01*
X45349Y319808D01*
X42544Y320178D01*
D02*
G37*
G36*
X-323470D02*
X-328070D01*
X-330876Y319808D01*
X-333491Y318725D01*
X-335736Y317003D01*
X-337459Y314757D01*
X-338542Y312143D01*
X-338911Y309337D01*
X-338542Y306531D01*
X-337459Y303917D01*
X-335736Y301671D01*
X-333491Y299949D01*
X-330876Y298866D01*
X-328070Y298496D01*
X-323470D01*
X-320664Y298866D01*
X-318050Y299949D01*
X-315805Y301671D01*
X-314082Y303917D01*
X-312999Y306531D01*
X-312630Y309337D01*
X-312999Y312143D01*
X-314082Y314757D01*
X-315805Y317003D01*
X-318050Y318725D01*
X-320664Y319808D01*
X-323470Y320178D01*
D02*
G37*
G36*
X321436Y310272D02*
X316836D01*
X314030Y309902D01*
X311415Y308819D01*
X309170Y307097D01*
X307447Y304851D01*
X306364Y302237D01*
X305995Y299431D01*
X306364Y296625D01*
X307447Y294011D01*
X309170Y291765D01*
X311415Y290043D01*
X314030Y288960D01*
X316836Y288590D01*
X321436D01*
X324241Y288960D01*
X326856Y290043D01*
X329101Y291765D01*
X330824Y294011D01*
X331907Y296625D01*
X332276Y299431D01*
X331907Y302237D01*
X330824Y304851D01*
X329101Y307097D01*
X326856Y308819D01*
X324241Y309902D01*
X321436Y310272D01*
D02*
G37*
G36*
X-274826Y381025D02*
X-293876D01*
X-295066Y380788D01*
X-296074Y380114D01*
X-296747Y379106D01*
X-296984Y377917D01*
Y285207D01*
X-296747Y284018D01*
X-296074Y283009D01*
X-295066Y282336D01*
X-293876Y282099D01*
X-274826D01*
X-273637Y282336D01*
X-272629Y283009D01*
X-271955Y284018D01*
X-271719Y285207D01*
Y377917D01*
X-271955Y379106D01*
X-272629Y380114D01*
X-273637Y380788D01*
X-274826Y381025D01*
D02*
G37*
G36*
X-465326D02*
X-486916D01*
X-488106Y380788D01*
X-489114Y380114D01*
X-489787Y379106D01*
X-490024Y377917D01*
Y285207D01*
X-489787Y284018D01*
X-489114Y283009D01*
X-488106Y282336D01*
X-486916Y282099D01*
X-465326D01*
X-464137Y282336D01*
X-463129Y283009D01*
X-462455Y284018D01*
X-462219Y285207D01*
Y377917D01*
X-462455Y379106D01*
X-463129Y380114D01*
X-464137Y380788D01*
X-465326Y381025D01*
D02*
G37*
G36*
X42544Y294778D02*
X37944D01*
X35138Y294408D01*
X32523Y293325D01*
X30278Y291602D01*
X28555Y289357D01*
X27472Y286743D01*
X27103Y283937D01*
X27472Y281131D01*
X28555Y278517D01*
X30278Y276271D01*
X32523Y274549D01*
X35138Y273466D01*
X37944Y273096D01*
X42544D01*
X45349Y273466D01*
X47964Y274549D01*
X50209Y276271D01*
X51932Y278517D01*
X53015Y281131D01*
X53384Y283937D01*
X53015Y286743D01*
X51932Y289357D01*
X50209Y291602D01*
X47964Y293325D01*
X45349Y294408D01*
X42544Y294778D01*
D02*
G37*
G36*
X-323470D02*
X-328070D01*
X-330876Y294408D01*
X-333491Y293325D01*
X-335736Y291602D01*
X-337459Y289357D01*
X-338542Y286743D01*
X-338911Y283937D01*
X-338542Y281131D01*
X-337459Y278517D01*
X-335736Y276271D01*
X-333491Y274549D01*
X-330876Y273466D01*
X-328070Y273096D01*
X-323470D01*
X-320664Y273466D01*
X-318050Y274549D01*
X-315805Y276271D01*
X-314082Y278517D01*
X-312999Y281131D01*
X-312630Y283937D01*
X-312999Y286743D01*
X-314082Y289357D01*
X-315805Y291602D01*
X-318050Y293325D01*
X-320664Y294408D01*
X-323470Y294778D01*
D02*
G37*
G36*
X-57207Y268986D02*
X-59633D01*
X-61873Y268058D01*
X-62897Y267034D01*
X-78073D01*
X-79097Y268058D01*
X-81337Y268986D01*
X-83763D01*
X-86003Y268058D01*
X-87718Y266343D01*
X-88646Y264103D01*
Y261677D01*
X-87718Y259437D01*
X-86003Y257722D01*
X-83763Y256794D01*
X-81337D01*
X-79097Y257722D01*
X-78073Y258746D01*
X-62897D01*
X-61873Y257722D01*
X-59633Y256794D01*
X-57207D01*
X-54967Y257722D01*
X-53252Y259437D01*
X-52324Y261677D01*
Y264103D01*
X-53252Y266343D01*
X-54967Y268058D01*
X-57207Y268986D01*
D02*
G37*
G36*
X321436Y284872D02*
X316836D01*
X314030Y284502D01*
X311415Y283419D01*
X309170Y281696D01*
X307447Y279451D01*
X306364Y276837D01*
X305995Y274031D01*
X306364Y271225D01*
X307447Y268611D01*
X309170Y266365D01*
X311415Y264643D01*
X314030Y263560D01*
X316836Y263190D01*
X321436D01*
X324241Y263560D01*
X326856Y264643D01*
X329101Y266365D01*
X330824Y268611D01*
X331907Y271225D01*
X332276Y274031D01*
X331907Y276837D01*
X330824Y279451D01*
X329101Y281696D01*
X326856Y283419D01*
X324241Y284502D01*
X321436Y284872D01*
D02*
G37*
G36*
X196396Y277333D02*
X193971D01*
X191731Y276405D01*
X190016Y274690D01*
X189088Y272449D01*
Y271001D01*
X181028Y262941D01*
X142251D01*
X141227Y263965D01*
X138986Y264893D01*
X136561D01*
X134321Y263965D01*
X132606Y262250D01*
X131678Y260010D01*
Y257585D01*
X132606Y255344D01*
X134321Y253629D01*
X136561Y252701D01*
X138986D01*
X141227Y253629D01*
X142251Y254653D01*
X182744D01*
X184330Y254969D01*
X185674Y255867D01*
X194948Y265141D01*
X196396D01*
X198637Y266069D01*
X200352Y267784D01*
X201280Y270024D01*
Y272449D01*
X200352Y274690D01*
X198637Y276405D01*
X196396Y277333D01*
D02*
G37*
G36*
X-323230Y268834D02*
Y261077D01*
X-313476D01*
X-313494Y261210D01*
X-314526Y263701D01*
X-316167Y265840D01*
X-318306Y267481D01*
X-320797Y268513D01*
X-323230Y268834D01*
D02*
G37*
G36*
X-328310D02*
X-330743Y268513D01*
X-333234Y267481D01*
X-335373Y265840D01*
X-337015Y263701D01*
X-338047Y261210D01*
X-338064Y261077D01*
X-328310D01*
Y268834D01*
D02*
G37*
G36*
X321676Y258928D02*
Y251171D01*
X331430D01*
X331412Y251304D01*
X330380Y253795D01*
X328739Y255934D01*
X326600Y257575D01*
X324109Y258607D01*
X321676Y258928D01*
D02*
G37*
G36*
X316596D02*
X314163Y258607D01*
X311672Y257575D01*
X309533Y255934D01*
X307891Y253795D01*
X306859Y251304D01*
X306842Y251171D01*
X316596D01*
Y258928D01*
D02*
G37*
G36*
X-313476Y255997D02*
X-323230D01*
Y248240D01*
X-320797Y248561D01*
X-318306Y249592D01*
X-316167Y251234D01*
X-314526Y253373D01*
X-313494Y255864D01*
X-313476Y255997D01*
D02*
G37*
G36*
X-328310D02*
X-338064D01*
X-338047Y255864D01*
X-337015Y253373D01*
X-335373Y251234D01*
X-333234Y249592D01*
X-330743Y248561D01*
X-328310Y248240D01*
Y255997D01*
D02*
G37*
G36*
X42544Y269378D02*
X37944D01*
X35138Y269008D01*
X32523Y267925D01*
X30278Y266203D01*
X28555Y263957D01*
X27472Y261343D01*
X27103Y258537D01*
X27472Y255731D01*
X28555Y253117D01*
X30278Y250871D01*
X32523Y249149D01*
X35138Y248066D01*
X37944Y247696D01*
X42544D01*
X45349Y248066D01*
X47964Y249149D01*
X50209Y250871D01*
X51932Y253117D01*
X53015Y255731D01*
X53384Y258537D01*
X53015Y261343D01*
X51932Y263957D01*
X50209Y266203D01*
X47964Y267925D01*
X45349Y269008D01*
X42544Y269378D01*
D02*
G37*
G36*
X331430Y246091D02*
X321676D01*
Y238334D01*
X324109Y238654D01*
X326600Y239686D01*
X328739Y241328D01*
X330380Y243467D01*
X331412Y245958D01*
X331430Y246091D01*
D02*
G37*
G36*
X316596D02*
X306842D01*
X306859Y245958D01*
X307891Y243467D01*
X309533Y241328D01*
X311672Y239686D01*
X314163Y238654D01*
X316596Y238334D01*
Y246091D01*
D02*
G37*
G36*
X269512Y232825D02*
X267656D01*
X265863Y232345D01*
X264256Y231417D01*
X263796Y230957D01*
X206062D01*
X205601Y231417D01*
X203994Y232345D01*
X202202Y232825D01*
X200346D01*
X198553Y232345D01*
X196946Y231417D01*
X195634Y230105D01*
X194706Y228498D01*
X194226Y226705D01*
Y224849D01*
X194706Y223057D01*
X195634Y221450D01*
X196946Y220137D01*
X198553Y219209D01*
X200346Y218729D01*
X202202D01*
X203994Y219209D01*
X205601Y220137D01*
X206062Y220598D01*
X263796D01*
X264256Y220137D01*
X265863Y219209D01*
X267656Y218729D01*
X269512D01*
X271304Y219209D01*
X272911Y220137D01*
X274223Y221450D01*
X275151Y223057D01*
X275632Y224849D01*
Y226705D01*
X275151Y228498D01*
X274223Y230105D01*
X272911Y231417D01*
X271304Y232345D01*
X269512Y232825D01*
D02*
G37*
G36*
X42544Y243978D02*
X37944D01*
X35138Y243608D01*
X32523Y242525D01*
X30278Y240802D01*
X28555Y238557D01*
X27472Y235943D01*
X27103Y233137D01*
X27472Y230331D01*
X28555Y227717D01*
X30278Y225471D01*
X32523Y223749D01*
X35138Y222666D01*
X37944Y222296D01*
X42544D01*
X45349Y222666D01*
X47964Y223749D01*
X50209Y225471D01*
X51932Y227717D01*
X53015Y230331D01*
X53384Y233137D01*
X53015Y235943D01*
X51932Y238557D01*
X50209Y240802D01*
X47964Y242525D01*
X45349Y243608D01*
X42544Y243978D01*
D02*
G37*
G36*
X-323470D02*
X-328070D01*
X-330876Y243608D01*
X-333491Y242525D01*
X-335736Y240802D01*
X-337459Y238557D01*
X-338542Y235943D01*
X-338911Y233137D01*
X-338542Y230331D01*
X-337459Y227717D01*
X-335736Y225471D01*
X-333491Y223749D01*
X-330876Y222666D01*
X-328070Y222296D01*
X-323470D01*
X-320664Y222666D01*
X-318050Y223749D01*
X-315805Y225471D01*
X-314082Y227717D01*
X-312999Y230331D01*
X-312630Y233137D01*
X-312999Y235943D01*
X-314082Y238557D01*
X-315805Y240802D01*
X-318050Y242525D01*
X-320664Y243608D01*
X-323470Y243978D01*
D02*
G37*
G36*
X-602122Y227940D02*
Y220183D01*
X-592368D01*
X-592386Y220316D01*
X-593418Y222807D01*
X-595059Y224946D01*
X-597198Y226588D01*
X-599689Y227619D01*
X-602122Y227940D01*
D02*
G37*
G36*
X-607202D02*
X-609636Y227619D01*
X-612127Y226588D01*
X-614266Y224946D01*
X-615907Y222807D01*
X-616939Y220316D01*
X-616956Y220183D01*
X-607202D01*
Y227940D01*
D02*
G37*
G36*
X42784Y218034D02*
Y210277D01*
X52538D01*
X52520Y210410D01*
X51488Y212901D01*
X49847Y215040D01*
X47708Y216681D01*
X45217Y217713D01*
X42784Y218034D01*
D02*
G37*
G36*
X37704D02*
X35271Y217713D01*
X32780Y216681D01*
X30640Y215040D01*
X28999Y212901D01*
X27967Y210410D01*
X27950Y210277D01*
X37704D01*
Y218034D01*
D02*
G37*
G36*
X-592368Y215103D02*
X-602122D01*
Y207346D01*
X-599689Y207666D01*
X-597198Y208698D01*
X-595059Y210340D01*
X-593418Y212479D01*
X-592386Y214970D01*
X-592368Y215103D01*
D02*
G37*
G36*
X-607202D02*
X-616956D01*
X-616939Y214970D01*
X-615907Y212479D01*
X-614266Y210340D01*
X-612127Y208698D01*
X-609636Y207666D01*
X-607202Y207346D01*
Y215103D01*
D02*
G37*
G36*
X52538Y205197D02*
X42784D01*
Y197440D01*
X45217Y197761D01*
X47708Y198792D01*
X49847Y200434D01*
X51488Y202573D01*
X52520Y205064D01*
X52538Y205197D01*
D02*
G37*
G36*
X37704D02*
X27950D01*
X27967Y205064D01*
X28999Y202573D01*
X30640Y200434D01*
X32780Y198792D01*
X35271Y197761D01*
X37704Y197440D01*
Y205197D01*
D02*
G37*
G36*
X-323470Y218578D02*
X-328070D01*
X-330876Y218208D01*
X-333491Y217125D01*
X-335736Y215403D01*
X-337459Y213157D01*
X-338542Y210543D01*
X-338911Y207737D01*
X-338542Y204931D01*
X-337459Y202317D01*
X-335736Y200071D01*
X-333491Y198349D01*
X-330876Y197266D01*
X-328070Y196896D01*
X-323470D01*
X-320664Y197266D01*
X-318050Y198349D01*
X-315805Y200071D01*
X-314082Y202317D01*
X-312999Y204931D01*
X-312630Y207737D01*
X-312999Y210543D01*
X-314082Y213157D01*
X-315805Y215403D01*
X-318050Y217125D01*
X-320664Y218208D01*
X-323470Y218578D01*
D02*
G37*
G36*
X-602362Y203084D02*
X-606962D01*
X-609768Y202714D01*
X-612383Y201631D01*
X-614628Y199909D01*
X-616351Y197663D01*
X-617434Y195049D01*
X-617803Y192243D01*
X-617434Y189437D01*
X-616351Y186823D01*
X-614628Y184577D01*
X-612383Y182855D01*
X-609768Y181772D01*
X-606962Y181402D01*
X-602362D01*
X-599557Y181772D01*
X-596942Y182855D01*
X-594697Y184577D01*
X-592974Y186823D01*
X-591891Y189437D01*
X-591521Y192243D01*
X-591891Y195049D01*
X-592974Y197663D01*
X-594697Y199909D01*
X-596942Y201631D01*
X-599557Y202714D01*
X-602362Y203084D01*
D02*
G37*
G36*
X42544Y193178D02*
X37944D01*
X35138Y192808D01*
X32523Y191725D01*
X30278Y190002D01*
X28555Y187757D01*
X27472Y185143D01*
X27103Y182337D01*
X27472Y179531D01*
X28555Y176917D01*
X30278Y174671D01*
X32523Y172949D01*
X35138Y171866D01*
X37944Y171496D01*
X42544D01*
X45349Y171866D01*
X47964Y172949D01*
X50209Y174671D01*
X51932Y176917D01*
X53015Y179531D01*
X53384Y182337D01*
X53015Y185143D01*
X51932Y187757D01*
X50209Y190002D01*
X47964Y191725D01*
X45349Y192808D01*
X42544Y193178D01*
D02*
G37*
G36*
X-323470D02*
X-328070D01*
X-330876Y192808D01*
X-333491Y191725D01*
X-335736Y190002D01*
X-337459Y187757D01*
X-338542Y185143D01*
X-338911Y182337D01*
X-338542Y179531D01*
X-337459Y176917D01*
X-335736Y174671D01*
X-333491Y172949D01*
X-330876Y171866D01*
X-328070Y171496D01*
X-323470D01*
X-320664Y171866D01*
X-318050Y172949D01*
X-315805Y174671D01*
X-314082Y176917D01*
X-312999Y179531D01*
X-312630Y182337D01*
X-312999Y185143D01*
X-314082Y187757D01*
X-315805Y190002D01*
X-318050Y191725D01*
X-320664Y192808D01*
X-323470Y193178D01*
D02*
G37*
G36*
X78026Y215617D02*
X75601D01*
X73361Y214689D01*
X71646Y212974D01*
X70718Y210734D01*
Y208309D01*
X71646Y206068D01*
X72670Y205044D01*
Y173105D01*
X71646Y172080D01*
X70718Y169840D01*
Y167415D01*
X71646Y165174D01*
X73361Y163459D01*
X75601Y162531D01*
X78026D01*
X80267Y163459D01*
X81982Y165174D01*
X82910Y167415D01*
Y169840D01*
X81982Y172080D01*
X80957Y173105D01*
Y205044D01*
X81982Y206068D01*
X82910Y208309D01*
Y210734D01*
X81982Y212974D01*
X80267Y214689D01*
X78026Y215617D01*
D02*
G37*
G36*
X-602362Y177684D02*
X-606962D01*
X-609768Y177314D01*
X-612383Y176231D01*
X-614628Y174508D01*
X-616351Y172263D01*
X-617434Y169649D01*
X-617803Y166843D01*
X-617434Y164037D01*
X-616351Y161423D01*
X-614628Y159177D01*
X-612383Y157455D01*
X-609768Y156372D01*
X-606962Y156002D01*
X-602362D01*
X-599557Y156372D01*
X-596942Y157455D01*
X-594697Y159177D01*
X-592974Y161423D01*
X-591891Y164037D01*
X-591521Y166843D01*
X-591891Y169649D01*
X-592974Y172263D01*
X-594697Y174508D01*
X-596942Y176231D01*
X-599557Y177314D01*
X-602362Y177684D01*
D02*
G37*
G36*
X42544Y167778D02*
X37944D01*
X35138Y167408D01*
X32523Y166325D01*
X30278Y164603D01*
X28555Y162357D01*
X27472Y159743D01*
X27103Y156937D01*
X27472Y154131D01*
X28555Y151517D01*
X30278Y149271D01*
X32523Y147549D01*
X35138Y146466D01*
X37944Y146096D01*
X42544D01*
X45349Y146466D01*
X47964Y147549D01*
X50209Y149271D01*
X51932Y151517D01*
X53015Y154131D01*
X53384Y156937D01*
X53015Y159743D01*
X51932Y162357D01*
X50209Y164603D01*
X47964Y166325D01*
X45349Y167408D01*
X42544Y167778D01*
D02*
G37*
G36*
X-323470D02*
X-328070D01*
X-330876Y167408D01*
X-333491Y166325D01*
X-335736Y164603D01*
X-337459Y162357D01*
X-338542Y159743D01*
X-338911Y156937D01*
X-338542Y154131D01*
X-337459Y151517D01*
X-335736Y149271D01*
X-333491Y147549D01*
X-330876Y146466D01*
X-328070Y146096D01*
X-323470D01*
X-320664Y146466D01*
X-318050Y147549D01*
X-315805Y149271D01*
X-314082Y151517D01*
X-312999Y154131D01*
X-312630Y156937D01*
X-312999Y159743D01*
X-314082Y162357D01*
X-315805Y164603D01*
X-318050Y166325D01*
X-320664Y167408D01*
X-323470Y167778D01*
D02*
G37*
G36*
X-174214Y153231D02*
Y143477D01*
X-166458D01*
X-166778Y145910D01*
X-167810Y148401D01*
X-169451Y150540D01*
X-171590Y152182D01*
X-174081Y153213D01*
X-174214Y153231D01*
D02*
G37*
G36*
X-179294D02*
X-179428Y153213D01*
X-181919Y152182D01*
X-184058Y150540D01*
X-185699Y148401D01*
X-186731Y145910D01*
X-187051Y143477D01*
X-179294D01*
Y153231D01*
D02*
G37*
G36*
X-602362Y152284D02*
X-606962D01*
X-609768Y151914D01*
X-612383Y150831D01*
X-614628Y149108D01*
X-616351Y146863D01*
X-617434Y144249D01*
X-617803Y141443D01*
X-617434Y138637D01*
X-616351Y136023D01*
X-614628Y133777D01*
X-612383Y132055D01*
X-609768Y130972D01*
X-606962Y130602D01*
X-602362D01*
X-599557Y130972D01*
X-596942Y132055D01*
X-594697Y133777D01*
X-592974Y136023D01*
X-591891Y138637D01*
X-591521Y141443D01*
X-591891Y144249D01*
X-592974Y146863D01*
X-594697Y149108D01*
X-596942Y150831D01*
X-599557Y151914D01*
X-602362Y152284D01*
D02*
G37*
G36*
X-53090Y152518D02*
X-56130D01*
X-59067Y151731D01*
X-61701Y150211D01*
X-63851Y148061D01*
X-65371Y145427D01*
X-66158Y142490D01*
Y139450D01*
X-65371Y136513D01*
X-63851Y133879D01*
X-61701Y131729D01*
X-59067Y130209D01*
X-56130Y129422D01*
X-53090D01*
X-50153Y130209D01*
X-47519Y131729D01*
X-45369Y133879D01*
X-43849Y136513D01*
X-43062Y139450D01*
Y142490D01*
X-43849Y145427D01*
X-45369Y148061D01*
X-47519Y150211D01*
X-50153Y151731D01*
X-53090Y152518D01*
D02*
G37*
G36*
X-166458Y138397D02*
X-174214D01*
Y128643D01*
X-174081Y128660D01*
X-171590Y129692D01*
X-169451Y131334D01*
X-167810Y133473D01*
X-166778Y135964D01*
X-166458Y138397D01*
D02*
G37*
G36*
X-179294D02*
X-187051D01*
X-186731Y135964D01*
X-185699Y133473D01*
X-184058Y131334D01*
X-181919Y129692D01*
X-179428Y128660D01*
X-179294Y128643D01*
Y138397D01*
D02*
G37*
G36*
X-89806Y153985D02*
X-111302D01*
Y127889D01*
X-89806D01*
Y153985D01*
D02*
G37*
G36*
X-125954Y154078D02*
X-128760Y153708D01*
X-131375Y152625D01*
X-133620Y150903D01*
X-135343Y148657D01*
X-136426Y146043D01*
X-136795Y143237D01*
Y138637D01*
X-136426Y135831D01*
X-135343Y133216D01*
X-133620Y130971D01*
X-131375Y129249D01*
X-128760Y128166D01*
X-125954Y127796D01*
X-123148Y128166D01*
X-120534Y129249D01*
X-118289Y130971D01*
X-116566Y133216D01*
X-115483Y135831D01*
X-115114Y138637D01*
Y143237D01*
X-115483Y146043D01*
X-116566Y148657D01*
X-118289Y150903D01*
X-120534Y152625D01*
X-123148Y153708D01*
X-125954Y154078D01*
D02*
G37*
G36*
X-151354D02*
X-154160Y153708D01*
X-156775Y152625D01*
X-159020Y150903D01*
X-160743Y148657D01*
X-161826Y146043D01*
X-162195Y143237D01*
Y138637D01*
X-161826Y135831D01*
X-160743Y133216D01*
X-159020Y130971D01*
X-156775Y129249D01*
X-154160Y128166D01*
X-151354Y127796D01*
X-148548Y128166D01*
X-145934Y129249D01*
X-143689Y130971D01*
X-141966Y133216D01*
X-140883Y135831D01*
X-140514Y138637D01*
Y143237D01*
X-140883Y146043D01*
X-141966Y148657D01*
X-143689Y150903D01*
X-145934Y152625D01*
X-148548Y153708D01*
X-151354Y154078D01*
D02*
G37*
G36*
X-602362Y126884D02*
X-606962D01*
X-609768Y126514D01*
X-612383Y125431D01*
X-614628Y123708D01*
X-616351Y121463D01*
X-617434Y118849D01*
X-617803Y116043D01*
X-617434Y113237D01*
X-616351Y110623D01*
X-614628Y108377D01*
X-612383Y106655D01*
X-609768Y105572D01*
X-606962Y105202D01*
X-602362D01*
X-599557Y105572D01*
X-596942Y106655D01*
X-594697Y108377D01*
X-592974Y110623D01*
X-591891Y113237D01*
X-591521Y116043D01*
X-591891Y118849D01*
X-592974Y121463D01*
X-594697Y123708D01*
X-596942Y125431D01*
X-599557Y126514D01*
X-602362Y126884D01*
D02*
G37*
G36*
X-260756Y111595D02*
X-263797D01*
X-266734Y110808D01*
X-269367Y109288D01*
X-271517Y107138D01*
X-273037Y104504D01*
X-273824Y101567D01*
Y98527D01*
X-273037Y95590D01*
X-271517Y92956D01*
X-269367Y90807D01*
X-266734Y89286D01*
X-263797Y88499D01*
X-260756D01*
X-257819Y89286D01*
X-255186Y90807D01*
X-253036Y92956D01*
X-251515Y95590D01*
X-250728Y98527D01*
Y101567D01*
X-251515Y104504D01*
X-253036Y107138D01*
X-255186Y109288D01*
X-257819Y110808D01*
X-260756Y111595D01*
D02*
G37*
G36*
X-602362Y101484D02*
X-606962D01*
X-609768Y101114D01*
X-612383Y100031D01*
X-614628Y98308D01*
X-616351Y96063D01*
X-617434Y93449D01*
X-617803Y90643D01*
X-617434Y87837D01*
X-616351Y85223D01*
X-614628Y82977D01*
X-612383Y81255D01*
X-609768Y80172D01*
X-606962Y79802D01*
X-602362D01*
X-599557Y80172D01*
X-596942Y81255D01*
X-594697Y82977D01*
X-592974Y85223D01*
X-591891Y87837D01*
X-591521Y90643D01*
X-591891Y93449D01*
X-592974Y96063D01*
X-594697Y98308D01*
X-596942Y100031D01*
X-599557Y101114D01*
X-602362Y101484D01*
D02*
G37*
G36*
X333360Y80331D02*
Y70577D01*
X341116D01*
X340796Y73010D01*
X339764Y75501D01*
X338123Y77640D01*
X335984Y79282D01*
X333493Y80313D01*
X333360Y80331D01*
D02*
G37*
G36*
X328280D02*
X328147Y80313D01*
X325656Y79282D01*
X323517Y77640D01*
X321875Y75501D01*
X320843Y73010D01*
X320523Y70577D01*
X328280D01*
Y80331D01*
D02*
G37*
G36*
X206360D02*
Y70577D01*
X214116D01*
X213796Y73010D01*
X212764Y75501D01*
X211123Y77640D01*
X208984Y79282D01*
X206493Y80313D01*
X206360Y80331D01*
D02*
G37*
G36*
X201280D02*
X201147Y80313D01*
X198655Y79282D01*
X196516Y77640D01*
X194875Y75501D01*
X193843Y73010D01*
X193523Y70577D01*
X201280D01*
Y80331D01*
D02*
G37*
G36*
X-563006Y76521D02*
Y66767D01*
X-555249D01*
X-555570Y69200D01*
X-556602Y71691D01*
X-558243Y73830D01*
X-560382Y75472D01*
X-562873Y76503D01*
X-563006Y76521D01*
D02*
G37*
G36*
X-568086D02*
X-568219Y76503D01*
X-570710Y75472D01*
X-572850Y73830D01*
X-574491Y71691D01*
X-575523Y69200D01*
X-575843Y66767D01*
X-568086D01*
Y76521D01*
D02*
G37*
G36*
X93474Y120675D02*
X-166876D01*
X-168066Y120438D01*
X-169074Y119764D01*
X-169747Y118756D01*
X-169984Y117567D01*
Y98517D01*
X-169747Y97328D01*
X-169074Y96319D01*
X-168066Y95646D01*
X-166876Y95409D01*
X64089D01*
Y70620D01*
X63554Y70085D01*
X62626Y68478D01*
X62146Y66685D01*
Y64829D01*
X62626Y63037D01*
X63554Y61430D01*
X64866Y60117D01*
X66473Y59190D01*
X68266Y58709D01*
X70122D01*
X71914Y59190D01*
X73521Y60117D01*
X74833Y61430D01*
X75761Y63037D01*
X76242Y64829D01*
Y66685D01*
X75761Y68478D01*
X74833Y70085D01*
X74448Y70470D01*
Y95409D01*
X93474D01*
X94663Y95646D01*
X95671Y96319D01*
X96345Y97328D01*
X96581Y98517D01*
Y117567D01*
X96345Y118756D01*
X95671Y119764D01*
X94663Y120438D01*
X93474Y120675D01*
D02*
G37*
G36*
X341116Y65497D02*
X333360D01*
Y55743D01*
X333493Y55760D01*
X335984Y56792D01*
X338123Y58434D01*
X339764Y60573D01*
X340796Y63064D01*
X341116Y65497D01*
D02*
G37*
G36*
X328280D02*
X320523D01*
X320843Y63064D01*
X321875Y60573D01*
X323517Y58434D01*
X325656Y56792D01*
X328147Y55760D01*
X328280Y55743D01*
Y65497D01*
D02*
G37*
G36*
X214116D02*
X206360D01*
Y55743D01*
X206493Y55760D01*
X208984Y56792D01*
X211123Y58434D01*
X212764Y60573D01*
X213796Y63064D01*
X214116Y65497D01*
D02*
G37*
G36*
X201280D02*
X193523D01*
X193843Y63064D01*
X194875Y60573D01*
X196516Y58434D01*
X198655Y56792D01*
X201147Y55760D01*
X201280Y55743D01*
Y65497D01*
D02*
G37*
G36*
X305420Y81178D02*
X302614Y80808D01*
X299999Y79725D01*
X297754Y78003D01*
X296031Y75757D01*
X294948Y73143D01*
X294579Y70337D01*
Y65737D01*
X294948Y62931D01*
X296031Y60317D01*
X297754Y58071D01*
X299999Y56349D01*
X302614Y55266D01*
X305420Y54896D01*
X308225Y55266D01*
X310840Y56349D01*
X313085Y58071D01*
X314808Y60317D01*
X315891Y62931D01*
X316260Y65737D01*
Y70337D01*
X315891Y73143D01*
X314808Y75757D01*
X313085Y78003D01*
X310840Y79725D01*
X308225Y80808D01*
X305420Y81178D01*
D02*
G37*
G36*
X280020D02*
X277214Y80808D01*
X274599Y79725D01*
X272354Y78003D01*
X270631Y75757D01*
X269548Y73143D01*
X269179Y70337D01*
Y65737D01*
X269548Y62931D01*
X270631Y60317D01*
X272354Y58071D01*
X274599Y56349D01*
X277214Y55266D01*
X280020Y54896D01*
X282826Y55266D01*
X285440Y56349D01*
X287685Y58071D01*
X289408Y60317D01*
X290491Y62931D01*
X290860Y65737D01*
Y70337D01*
X290491Y73143D01*
X289408Y75757D01*
X287685Y78003D01*
X285440Y79725D01*
X282826Y80808D01*
X280020Y81178D01*
D02*
G37*
G36*
X254620D02*
X251814Y80808D01*
X249199Y79725D01*
X246954Y78003D01*
X245231Y75757D01*
X244148Y73143D01*
X243779Y70337D01*
Y65737D01*
X244148Y62931D01*
X245231Y60317D01*
X246954Y58071D01*
X249199Y56349D01*
X251814Y55266D01*
X254620Y54896D01*
X257425Y55266D01*
X260040Y56349D01*
X262285Y58071D01*
X264008Y60317D01*
X265091Y62931D01*
X265460Y65737D01*
Y70337D01*
X265091Y73143D01*
X264008Y75757D01*
X262285Y78003D01*
X260040Y79725D01*
X257425Y80808D01*
X254620Y81178D01*
D02*
G37*
G36*
X229220D02*
X226414Y80808D01*
X223799Y79725D01*
X221554Y78003D01*
X219831Y75757D01*
X218748Y73143D01*
X218379Y70337D01*
Y65737D01*
X218748Y62931D01*
X219831Y60317D01*
X221554Y58071D01*
X223799Y56349D01*
X226414Y55266D01*
X229220Y54896D01*
X232026Y55266D01*
X234640Y56349D01*
X236885Y58071D01*
X238608Y60317D01*
X239691Y62931D01*
X240060Y65737D01*
Y70337D01*
X239691Y73143D01*
X238608Y75757D01*
X236885Y78003D01*
X234640Y79725D01*
X232026Y80808D01*
X229220Y81178D01*
D02*
G37*
G36*
X-555249Y61687D02*
X-563006D01*
Y51933D01*
X-562873Y51950D01*
X-560382Y52982D01*
X-558243Y54624D01*
X-556602Y56763D01*
X-555570Y59254D01*
X-555249Y61687D01*
D02*
G37*
G36*
X-568086D02*
X-575843D01*
X-575523Y59254D01*
X-574491Y56763D01*
X-572850Y54624D01*
X-570710Y52982D01*
X-568219Y51950D01*
X-568086Y51933D01*
Y61687D01*
D02*
G37*
G36*
X-438546Y77368D02*
X-441352Y76998D01*
X-443967Y75915D01*
X-446212Y74193D01*
X-447935Y71947D01*
X-449018Y69333D01*
X-449387Y66527D01*
Y61927D01*
X-449018Y59121D01*
X-447935Y56507D01*
X-446212Y54261D01*
X-443967Y52539D01*
X-441352Y51456D01*
X-438546Y51086D01*
X-435741Y51456D01*
X-433126Y52539D01*
X-430881Y54261D01*
X-429158Y56507D01*
X-428075Y59121D01*
X-427706Y61927D01*
Y66527D01*
X-428075Y69333D01*
X-429158Y71947D01*
X-430881Y74193D01*
X-433126Y75915D01*
X-435741Y76998D01*
X-438546Y77368D01*
D02*
G37*
G36*
X-463946D02*
X-466752Y76998D01*
X-469367Y75915D01*
X-471612Y74193D01*
X-473335Y71947D01*
X-474418Y69333D01*
X-474787Y66527D01*
Y61927D01*
X-474418Y59121D01*
X-473335Y56507D01*
X-471612Y54261D01*
X-469367Y52539D01*
X-466752Y51456D01*
X-463946Y51086D01*
X-461141Y51456D01*
X-458526Y52539D01*
X-456281Y54261D01*
X-454558Y56507D01*
X-453475Y59121D01*
X-453106Y61927D01*
Y66527D01*
X-453475Y69333D01*
X-454558Y71947D01*
X-456281Y74193D01*
X-458526Y75915D01*
X-461141Y76998D01*
X-463946Y77368D01*
D02*
G37*
G36*
X-489346D02*
X-492152Y76998D01*
X-494767Y75915D01*
X-497012Y74193D01*
X-498735Y71947D01*
X-499818Y69333D01*
X-500187Y66527D01*
Y61927D01*
X-499818Y59121D01*
X-498735Y56507D01*
X-497012Y54261D01*
X-494767Y52539D01*
X-492152Y51456D01*
X-489346Y51086D01*
X-486540Y51456D01*
X-483926Y52539D01*
X-481681Y54261D01*
X-479958Y56507D01*
X-478875Y59121D01*
X-478506Y61927D01*
Y66527D01*
X-478875Y69333D01*
X-479958Y71947D01*
X-481681Y74193D01*
X-483926Y75915D01*
X-486540Y76998D01*
X-489346Y77368D01*
D02*
G37*
G36*
X-514746D02*
X-517552Y76998D01*
X-520167Y75915D01*
X-522412Y74193D01*
X-524135Y71947D01*
X-525218Y69333D01*
X-525587Y66527D01*
Y61927D01*
X-525218Y59121D01*
X-524135Y56507D01*
X-522412Y54261D01*
X-520167Y52539D01*
X-517552Y51456D01*
X-514746Y51086D01*
X-511940Y51456D01*
X-509326Y52539D01*
X-507081Y54261D01*
X-505358Y56507D01*
X-504275Y59121D01*
X-503906Y61927D01*
Y66527D01*
X-504275Y69333D01*
X-505358Y71947D01*
X-507081Y74193D01*
X-509326Y75915D01*
X-511940Y76998D01*
X-514746Y77368D01*
D02*
G37*
G36*
X-540146D02*
X-542952Y76998D01*
X-545567Y75915D01*
X-547812Y74193D01*
X-549535Y71947D01*
X-550618Y69333D01*
X-550987Y66527D01*
Y61927D01*
X-550618Y59121D01*
X-549535Y56507D01*
X-547812Y54261D01*
X-545567Y52539D01*
X-542952Y51456D01*
X-540146Y51086D01*
X-537341Y51456D01*
X-534726Y52539D01*
X-532481Y54261D01*
X-530758Y56507D01*
X-529675Y59121D01*
X-529306Y61927D01*
Y66527D01*
X-529675Y69333D01*
X-530758Y71947D01*
X-532481Y74193D01*
X-534726Y75915D01*
X-537341Y76998D01*
X-540146Y77368D01*
D02*
G37*
G36*
X260912Y46193D02*
X258487D01*
X256247Y45265D01*
X255222Y44241D01*
X210837D01*
X209813Y45265D01*
X207572Y46193D01*
X205147D01*
X202907Y45265D01*
X201192Y43550D01*
X200264Y41309D01*
Y38884D01*
X201192Y36644D01*
X202907Y34929D01*
X205147Y34001D01*
X207572D01*
X209813Y34929D01*
X210837Y35953D01*
X255222D01*
X256247Y34929D01*
X258487Y34001D01*
X260912D01*
X263153Y34929D01*
X264868Y36644D01*
X265796Y38884D01*
Y41309D01*
X264868Y43550D01*
X263153Y45265D01*
X260912Y46193D01*
D02*
G37*
G36*
X310228Y1778D02*
X284132D01*
Y-3204D01*
X283773Y-3388D01*
X282862Y-3541D01*
X281406Y-1644D01*
X279284Y-15D01*
X276812Y1009D01*
X274320Y1337D01*
Y-8890D01*
Y-19117D01*
X276812Y-18788D01*
X279284Y-17765D01*
X281406Y-16136D01*
X282862Y-14239D01*
X283773Y-14392D01*
X284132Y-14576D01*
Y-19558D01*
X310228D01*
Y1778D01*
D02*
G37*
G36*
X-549997Y1337D02*
Y-6350D01*
X-540244D01*
X-540259Y-6238D01*
X-541283Y-3766D01*
X-542911Y-1644D01*
X-545033Y-15D01*
X-547505Y1009D01*
X-549997Y1337D01*
D02*
G37*
G36*
X269240Y1337D02*
X266748Y1009D01*
X264276Y-15D01*
X262154Y-1644D01*
X260525Y-3766D01*
X259501Y-6238D01*
X259487Y-6350D01*
X269240D01*
Y1337D01*
D02*
G37*
G36*
X10000Y18135D02*
X-10000D01*
X-13538Y17787D01*
X-16940Y16755D01*
X-20075Y15079D01*
X-22824Y12824D01*
X-25079Y10075D01*
X-26755Y6940D01*
X-27787Y3538D01*
X-28135Y0D01*
X-27787Y-3538D01*
X-26755Y-6940D01*
X-25079Y-10075D01*
X-22824Y-12824D01*
X-20075Y-15079D01*
X-16940Y-16755D01*
X-13538Y-17787D01*
X-10000Y-18135D01*
X10000D01*
X13538Y-17787D01*
X16940Y-16755D01*
X20075Y-15079D01*
X22824Y-12824D01*
X25079Y-10075D01*
X26755Y-6940D01*
X27787Y-3538D01*
X28135Y0D01*
X27787Y3538D01*
X26755Y6940D01*
X25079Y10075D01*
X22824Y12824D01*
X20075Y15079D01*
X16940Y16755D01*
X13538Y17787D01*
X10000Y18135D01*
D02*
G37*
G36*
X269240Y-11430D02*
X259487D01*
X259501Y-11542D01*
X260525Y-14014D01*
X262154Y-16136D01*
X264276Y-17765D01*
X266748Y-18788D01*
X269240Y-19117D01*
Y-11430D01*
D02*
G37*
G36*
X-540244Y-11430D02*
X-549997D01*
Y-19117D01*
X-547505Y-18788D01*
X-545033Y-17765D01*
X-542911Y-16136D01*
X-541283Y-14014D01*
X-540259Y-11542D01*
X-540244Y-11430D01*
D02*
G37*
G36*
X-564889Y1778D02*
X-590985D01*
Y-19558D01*
X-564889D01*
Y-14576D01*
X-564530Y-14392D01*
X-563619Y-14239D01*
X-562164Y-16136D01*
X-560041Y-17765D01*
X-557570Y-18788D01*
X-555077Y-19117D01*
Y-8890D01*
Y1337D01*
X-557570Y1009D01*
X-560041Y-15D01*
X-562164Y-1644D01*
X-563619Y-3541D01*
X-564530Y-3388D01*
X-564889Y-3204D01*
Y1778D01*
D02*
G37*
G36*
X50540Y-2625D02*
Y-27460D01*
X65625D01*
Y-20000D01*
X65286Y-16561D01*
X64283Y-13255D01*
X62655Y-10208D01*
X60463Y-7537D01*
X57792Y-5346D01*
X54745Y-3717D01*
X51438Y-2714D01*
X50540Y-2625D01*
D02*
G37*
G36*
X45460Y-2625D02*
X44562Y-2714D01*
X41255Y-3717D01*
X38208Y-5346D01*
X35537Y-7537D01*
X33345Y-10208D01*
X31717Y-13255D01*
X30714Y-16561D01*
X30375Y-20000D01*
Y-27460D01*
X45460D01*
Y-2625D01*
D02*
G37*
G36*
X310228Y-23622D02*
X284132D01*
Y-28604D01*
X283773Y-28788D01*
X282862Y-28941D01*
X281406Y-27044D01*
X279284Y-25415D01*
X276812Y-24392D01*
X274320Y-24063D01*
Y-34290D01*
Y-44517D01*
X276812Y-44188D01*
X279284Y-43165D01*
X281406Y-41536D01*
X282862Y-39639D01*
X283773Y-39792D01*
X284132Y-39976D01*
Y-44958D01*
X310228D01*
Y-23622D01*
D02*
G37*
G36*
X-549997Y-24063D02*
Y-31750D01*
X-540244D01*
X-540259Y-31638D01*
X-541283Y-29166D01*
X-542911Y-27044D01*
X-545033Y-25415D01*
X-547505Y-24392D01*
X-549997Y-24063D01*
D02*
G37*
G36*
X269240Y-24063D02*
X266748Y-24392D01*
X264276Y-25415D01*
X262154Y-27044D01*
X260525Y-29166D01*
X259501Y-31638D01*
X259487Y-31750D01*
X269240D01*
Y-24063D01*
D02*
G37*
G36*
X-174386Y-20764D02*
Y-33563D01*
X-161587D01*
X-161984Y-31570D01*
X-163155Y-28742D01*
X-164856Y-26197D01*
X-167020Y-24032D01*
X-169565Y-22332D01*
X-172393Y-21160D01*
X-174386Y-20764D01*
D02*
G37*
G36*
X-179466Y-20764D02*
X-181459Y-21160D01*
X-184287Y-22332D01*
X-186833Y-24032D01*
X-188997Y-26197D01*
X-190698Y-28742D01*
X-191869Y-31570D01*
X-192265Y-33563D01*
X-179466D01*
Y-20764D01*
D02*
G37*
G36*
X-253236Y-3785D02*
X-272286D01*
X-273476Y-4022D01*
X-274484Y-4696D01*
X-275157Y-5704D01*
X-275394Y-6893D01*
Y-19025D01*
X-372616D01*
X-373806Y-19262D01*
X-374814Y-19936D01*
X-375487Y-20944D01*
X-375724Y-22133D01*
Y-36103D01*
X-375487Y-37292D01*
X-374814Y-38301D01*
X-373806Y-38974D01*
X-372616Y-39211D01*
X-253236D01*
X-252047Y-38974D01*
X-251039Y-38301D01*
X-250365Y-37292D01*
X-250129Y-36103D01*
Y-6893D01*
X-250365Y-5704D01*
X-251039Y-4696D01*
X-252047Y-4022D01*
X-253236Y-3785D01*
D02*
G37*
G36*
X269240Y-36830D02*
X259487D01*
X259501Y-36942D01*
X260525Y-39414D01*
X262154Y-41536D01*
X264276Y-43165D01*
X266748Y-44188D01*
X269240Y-44517D01*
Y-36830D01*
D02*
G37*
G36*
X-540244Y-36830D02*
X-549997D01*
Y-44517D01*
X-547505Y-44188D01*
X-545033Y-43165D01*
X-542911Y-41536D01*
X-541283Y-39414D01*
X-540259Y-36942D01*
X-540244Y-36830D01*
D02*
G37*
G36*
X-564889Y-23622D02*
X-590985D01*
Y-44958D01*
X-564889D01*
Y-39976D01*
X-564530Y-39792D01*
X-563619Y-39639D01*
X-562164Y-41536D01*
X-560041Y-43165D01*
X-557570Y-44188D01*
X-555077Y-44517D01*
Y-34290D01*
Y-24063D01*
X-557570Y-24392D01*
X-560041Y-25415D01*
X-562164Y-27044D01*
X-563619Y-28941D01*
X-564530Y-28788D01*
X-564889Y-28604D01*
Y-23622D01*
D02*
G37*
G36*
X-161587Y-38643D02*
X-174386D01*
Y-51442D01*
X-172393Y-51046D01*
X-169565Y-49874D01*
X-167020Y-48174D01*
X-164856Y-46009D01*
X-163155Y-43464D01*
X-161984Y-40636D01*
X-161587Y-38643D01*
D02*
G37*
G36*
X-179466D02*
X-192265D01*
X-191869Y-40636D01*
X-190698Y-43464D01*
X-188997Y-46009D01*
X-186833Y-48174D01*
X-184287Y-49874D01*
X-181459Y-51046D01*
X-179466Y-51442D01*
Y-38643D01*
D02*
G37*
G36*
X-110078Y-20055D02*
X-142174D01*
Y-52151D01*
X-110078D01*
Y-20055D01*
D02*
G37*
G36*
X10000Y-40375D02*
X2540D01*
Y-55460D01*
X27375D01*
X27286Y-54562D01*
X26283Y-51255D01*
X24655Y-48208D01*
X22463Y-45537D01*
X19792Y-43345D01*
X16745Y-41717D01*
X13439Y-40714D01*
X10000Y-40375D01*
D02*
G37*
G36*
X-2540D02*
X-10000D01*
X-13439Y-40714D01*
X-16745Y-41717D01*
X-19792Y-43345D01*
X-22463Y-45537D01*
X-24655Y-48208D01*
X-26283Y-51255D01*
X-27286Y-54562D01*
X-27375Y-55460D01*
X-2540D01*
Y-40375D01*
D02*
G37*
G36*
X65625Y-32540D02*
X50540D01*
Y-57375D01*
X51438Y-57286D01*
X54745Y-56283D01*
X57792Y-54654D01*
X60463Y-52463D01*
X62655Y-49792D01*
X64283Y-46745D01*
X65286Y-43438D01*
X65625Y-40000D01*
Y-32540D01*
D02*
G37*
G36*
X45460D02*
X30375D01*
Y-40000D01*
X30714Y-43438D01*
X31717Y-46745D01*
X33345Y-49792D01*
X35537Y-52463D01*
X38208Y-54654D01*
X41255Y-56283D01*
X44562Y-57286D01*
X45460Y-57375D01*
Y-32540D01*
D02*
G37*
G36*
X27375Y-60540D02*
X2540D01*
Y-75625D01*
X10000D01*
X13439Y-75286D01*
X16745Y-74283D01*
X19792Y-72655D01*
X22463Y-70463D01*
X24655Y-67792D01*
X26283Y-64745D01*
X27286Y-61438D01*
X27375Y-60540D01*
D02*
G37*
G36*
X-2540D02*
X-27375D01*
X-27286Y-61438D01*
X-26283Y-64745D01*
X-24655Y-67792D01*
X-22463Y-70463D01*
X-19792Y-72655D01*
X-16745Y-74283D01*
X-13439Y-75286D01*
X-10000Y-75625D01*
X-2540D01*
Y-60540D01*
D02*
G37*
G36*
X155814Y-66989D02*
Y-76743D01*
X163570D01*
X163250Y-74310D01*
X162218Y-71819D01*
X160577Y-69680D01*
X158438Y-68038D01*
X155947Y-67007D01*
X155814Y-66989D01*
D02*
G37*
G36*
X150734D02*
X150601Y-67007D01*
X148110Y-68038D01*
X145970Y-69680D01*
X144329Y-71819D01*
X143297Y-74310D01*
X142977Y-76743D01*
X150734D01*
Y-66989D01*
D02*
G37*
G36*
X-72528Y25303D02*
X-74953D01*
X-77193Y24375D01*
X-78908Y22660D01*
X-79836Y20419D01*
Y17994D01*
X-78908Y15754D01*
X-77884Y14729D01*
Y-69263D01*
X-78828Y-70207D01*
X-79756Y-72447D01*
Y-74873D01*
X-78828Y-77113D01*
X-77113Y-78828D01*
X-74873Y-79756D01*
X-72447D01*
X-70207Y-78828D01*
X-68492Y-77113D01*
X-67564Y-74873D01*
Y-72447D01*
X-68492Y-70207D01*
X-69597Y-69102D01*
Y14729D01*
X-68572Y15754D01*
X-67644Y17994D01*
Y20419D01*
X-68572Y22660D01*
X-70287Y24375D01*
X-72528Y25303D01*
D02*
G37*
G36*
X340691Y-53172D02*
X337136D01*
X333649Y-53866D01*
X330365Y-55226D01*
X327409Y-57202D01*
X324895Y-59715D01*
X322920Y-62671D01*
X321559Y-65956D01*
X320866Y-69443D01*
Y-72998D01*
X321559Y-76485D01*
X322920Y-79769D01*
X324895Y-82725D01*
X327409Y-85239D01*
X330365Y-87214D01*
X333649Y-88575D01*
X337136Y-89268D01*
X340691D01*
X344178Y-88575D01*
X347463Y-87214D01*
X350419Y-85239D01*
X352933Y-82725D01*
X354908Y-79769D01*
X356268Y-76485D01*
X356962Y-72998D01*
Y-69443D01*
X356268Y-65956D01*
X354908Y-62671D01*
X352933Y-59715D01*
X350419Y-57202D01*
X347463Y-55226D01*
X344178Y-53866D01*
X340691Y-53172D01*
D02*
G37*
G36*
X163570Y-81823D02*
X155814D01*
Y-91577D01*
X155947Y-91559D01*
X158438Y-90528D01*
X160577Y-88886D01*
X162218Y-86747D01*
X163250Y-84256D01*
X163570Y-81823D01*
D02*
G37*
G36*
X150734D02*
X142977D01*
X143297Y-84256D01*
X144329Y-86747D01*
X145970Y-88886D01*
X148110Y-90528D01*
X150601Y-91559D01*
X150734Y-91577D01*
Y-81823D01*
D02*
G37*
G36*
X265622Y-66235D02*
X244126D01*
Y-92331D01*
X265622D01*
Y-66235D01*
D02*
G37*
G36*
X229474Y-66142D02*
X226668Y-66512D01*
X224053Y-67595D01*
X221808Y-69317D01*
X220085Y-71563D01*
X219002Y-74177D01*
X218633Y-76983D01*
Y-81583D01*
X219002Y-84389D01*
X220085Y-87003D01*
X221808Y-89249D01*
X224053Y-90971D01*
X226668Y-92054D01*
X229474Y-92424D01*
X232279Y-92054D01*
X234894Y-90971D01*
X237139Y-89249D01*
X238862Y-87003D01*
X239945Y-84389D01*
X240314Y-81583D01*
Y-76983D01*
X239945Y-74177D01*
X238862Y-71563D01*
X237139Y-69317D01*
X234894Y-67595D01*
X232279Y-66512D01*
X229474Y-66142D01*
D02*
G37*
G36*
X204074D02*
X201268Y-66512D01*
X198653Y-67595D01*
X196408Y-69317D01*
X194685Y-71563D01*
X193602Y-74177D01*
X193233Y-76983D01*
Y-81583D01*
X193602Y-84389D01*
X194685Y-87003D01*
X196408Y-89249D01*
X198653Y-90971D01*
X201268Y-92054D01*
X204074Y-92424D01*
X206880Y-92054D01*
X209494Y-90971D01*
X211739Y-89249D01*
X213462Y-87003D01*
X214545Y-84389D01*
X214914Y-81583D01*
Y-76983D01*
X214545Y-74177D01*
X213462Y-71563D01*
X211739Y-69317D01*
X209494Y-67595D01*
X206880Y-66512D01*
X204074Y-66142D01*
D02*
G37*
G36*
X178674D02*
X175868Y-66512D01*
X173253Y-67595D01*
X171008Y-69317D01*
X169285Y-71563D01*
X168202Y-74177D01*
X167833Y-76983D01*
Y-81583D01*
X168202Y-84389D01*
X169285Y-87003D01*
X171008Y-89249D01*
X173253Y-90971D01*
X175868Y-92054D01*
X178674Y-92424D01*
X181479Y-92054D01*
X184094Y-90971D01*
X186339Y-89249D01*
X188062Y-87003D01*
X189145Y-84389D01*
X189514Y-81583D01*
Y-76983D01*
X189145Y-74177D01*
X188062Y-71563D01*
X186339Y-69317D01*
X184094Y-67595D01*
X181479Y-66512D01*
X178674Y-66142D01*
D02*
G37*
G36*
X-623679Y-56375D02*
X-627234D01*
X-630721Y-57069D01*
X-634005Y-58429D01*
X-636961Y-60404D01*
X-639475Y-62918D01*
X-641450Y-65874D01*
X-642811Y-69159D01*
X-643504Y-72646D01*
Y-76201D01*
X-642811Y-79688D01*
X-641450Y-82972D01*
X-639475Y-85928D01*
X-636961Y-88442D01*
X-634005Y-90417D01*
X-630721Y-91777D01*
X-627234Y-92471D01*
X-623679D01*
X-620192Y-91777D01*
X-616907Y-90417D01*
X-613951Y-88442D01*
X-611437Y-85928D01*
X-609462Y-82972D01*
X-608102Y-79688D01*
X-607408Y-76201D01*
Y-72646D01*
X-608102Y-69159D01*
X-609462Y-65874D01*
X-611437Y-62918D01*
X-613951Y-60404D01*
X-616907Y-58429D01*
X-620192Y-57069D01*
X-623679Y-56375D01*
D02*
G37*
%LPD*%
G36*
X-274826Y285207D02*
X-293876D01*
Y377917D01*
X-274826D01*
Y285207D01*
D02*
G37*
G36*
X-465326D02*
X-486916D01*
Y377917D01*
X-465326D01*
Y285207D01*
D02*
G37*
G36*
X93474Y98517D02*
X-166876D01*
Y117567D01*
X93474D01*
Y98517D01*
D02*
G37*
G36*
X-253236Y-36103D02*
X-372616D01*
Y-22133D01*
X-272286D01*
Y-6893D01*
X-253236D01*
Y-36103D01*
D02*
G37*
D13*
X-82550Y262890D02*
X-58420D01*
X153239Y472440D02*
X153670Y472009D01*
X119380Y472440D02*
X153239D01*
X113030Y441960D02*
Y466090D01*
X119380Y472440D01*
X254620Y402047D02*
X254945Y402372D01*
Y471684D01*
X255270Y472009D01*
X229545Y471684D02*
X229870Y472009D01*
X229545Y402372D02*
Y471684D01*
X229220Y402047D02*
X229545Y402372D01*
X-73740Y-73580D02*
X-73660Y-73660D01*
X-73740Y-73580D02*
Y19207D01*
X206360Y40097D02*
X259700D01*
X137774Y258797D02*
X182744D01*
X195184Y271237D01*
X76814Y168627D02*
Y209521D01*
X-565656Y338547D02*
X-565601Y338602D01*
Y398182D01*
X-565546Y398237D01*
X-125954Y140937D02*
Y143237D01*
D35*
X-148234Y471897D02*
D03*
X-204734D02*
D03*
D85*
X201274Y225777D02*
X268584D01*
X69194Y65757D02*
X69269Y65832D01*
Y103522D01*
X69344Y103597D01*
D87*
X280670Y472009D02*
D03*
X255270D02*
D03*
X179070D02*
D03*
X204470D02*
D03*
X229870D02*
D03*
X330820Y68037D02*
D03*
X305420D02*
D03*
X280020D02*
D03*
X254620D02*
D03*
X229220D02*
D03*
X203820D02*
D03*
X-616346Y398237D02*
D03*
X-590946D02*
D03*
X-565546D02*
D03*
X-540146D02*
D03*
X-514746D02*
D03*
X-489346D02*
D03*
X229474Y-79283D02*
D03*
X204074D02*
D03*
X-538434Y472009D02*
D03*
X-513034D02*
D03*
X-151354Y140937D02*
D03*
X-487634Y472009D02*
D03*
X-462234D02*
D03*
X153274Y-79283D02*
D03*
X178674D02*
D03*
X-125954Y140937D02*
D03*
X-176754D02*
D03*
D88*
X153670Y472009D02*
D03*
X254874Y-79283D02*
D03*
X-563834Y472009D02*
D03*
X-100554Y140937D02*
D03*
D89*
X0Y0D02*
D03*
Y-58000D02*
D03*
D90*
X48000Y-30000D02*
D03*
D91*
X297180Y-8890D02*
D03*
Y-34290D02*
D03*
X-577937Y-8890D02*
D03*
Y-34290D02*
D03*
D92*
X271780Y-8890D02*
D03*
Y-34290D02*
D03*
X-552537Y-8890D02*
D03*
Y-34290D02*
D03*
D93*
X40244Y283937D02*
D03*
Y156937D02*
D03*
Y182337D02*
D03*
Y207737D02*
D03*
Y233137D02*
D03*
Y258537D02*
D03*
X319136Y248631D02*
D03*
Y274031D02*
D03*
Y299431D02*
D03*
Y324831D02*
D03*
Y350231D02*
D03*
Y375631D02*
D03*
X40244Y309337D02*
D03*
X-325770Y182337D02*
D03*
Y309337D02*
D03*
Y283937D02*
D03*
Y258537D02*
D03*
Y233137D02*
D03*
Y207737D02*
D03*
X-604662Y217643D02*
D03*
Y192243D02*
D03*
Y166843D02*
D03*
Y141443D02*
D03*
Y116043D02*
D03*
Y90643D02*
D03*
X-325770Y156937D02*
D03*
D94*
X153020Y402047D02*
D03*
X178420D02*
D03*
X203820D02*
D03*
X229220D02*
D03*
X254620D02*
D03*
X280020D02*
D03*
X-438546Y64227D02*
D03*
X-463946D02*
D03*
X-489346D02*
D03*
X-514746D02*
D03*
X-540146D02*
D03*
X-565546D02*
D03*
D95*
X-302214Y464389D02*
D03*
X-262276Y100047D02*
D03*
X-54610Y140970D02*
D03*
D96*
X338914Y465017D02*
D03*
X-625456Y465017D02*
D03*
X338914Y-71220D02*
D03*
X-625456Y-74423D02*
D03*
X-250209Y455720D02*
D03*
X-37609D02*
D03*
D97*
X-176926Y-36103D02*
D03*
D98*
X-126126D02*
D03*
D99*
X-509666Y-24673D02*
D03*
X-487463Y43775D02*
D03*
Y20915D02*
D03*
X-218440Y195580D02*
D03*
X-195580D02*
D03*
X-172720D02*
D03*
X-240463Y244717D02*
D03*
X-578506Y136877D02*
D03*
Y159737D02*
D03*
X-195580Y245110D02*
D03*
X-84470Y191227D02*
D03*
X-107330D02*
D03*
X-130190D02*
D03*
X-58420Y262890D02*
D03*
X-82550D02*
D03*
X-196501Y297180D02*
D03*
X-173641D02*
D03*
X-150781D02*
D03*
X-127921D02*
D03*
X-105062D02*
D03*
X-219361Y321306D02*
D03*
X-196501D02*
D03*
X-173641D02*
D03*
X-150781D02*
D03*
X-127921D02*
D03*
X-105061D02*
D03*
X-82550Y321310D02*
D03*
X-13970Y297180D02*
D03*
X113030Y441960D02*
D03*
X101464Y439137D02*
D03*
X124324D02*
D03*
X344170Y487680D02*
D03*
X318770D02*
D03*
X307340Y471170D02*
D03*
X147184Y439137D02*
D03*
X124324Y416277D02*
D03*
X-104276Y461997D02*
D03*
X-342900Y439140D02*
D03*
X-320040D02*
D03*
X-297180D02*
D03*
X-274320D02*
D03*
X-228600D02*
D03*
X-209550Y444500D02*
D03*
X-320040Y462000D02*
D03*
X-274320D02*
D03*
X-228600D02*
D03*
X-297180Y484860D02*
D03*
X-188356Y416277D02*
D03*
X-165496D02*
D03*
X-188356Y440147D02*
D03*
X-164592Y427482D02*
D03*
X-190708Y478613D02*
D03*
X-198776Y393417D02*
D03*
X-162514Y478613D02*
D03*
X-177186Y379447D02*
D03*
X-162514Y453213D02*
D03*
X-198776Y406117D02*
D03*
X-164592Y440182D02*
D03*
X-162514Y465913D02*
D03*
X-190708D02*
D03*
Y453213D02*
D03*
X-165756Y381987D02*
D03*
X-188616D02*
D03*
X-188356Y427447D02*
D03*
X314276Y446969D02*
D03*
X293370Y457200D02*
D03*
X267970D02*
D03*
X242570D02*
D03*
X191770Y458470D02*
D03*
X267970Y416560D02*
D03*
X241300D02*
D03*
X293370Y487680D02*
D03*
X267970D02*
D03*
X242570D02*
D03*
X217170D02*
D03*
X191770D02*
D03*
X166370D02*
D03*
X-555386Y21047D02*
D03*
X-578246D02*
D03*
Y43907D02*
D03*
X-501650Y384810D02*
D03*
X-527050D02*
D03*
X-552846Y385537D02*
D03*
X-604520Y384810D02*
D03*
X-501650Y419100D02*
D03*
X-568960Y444500D02*
D03*
X-543560Y419100D02*
D03*
X-568960D02*
D03*
X-646826Y478247D02*
D03*
Y455387D02*
D03*
X-601106Y478247D02*
D03*
Y455387D02*
D03*
Y432527D02*
D03*
X-623966D02*
D03*
X316230Y-82550D02*
D03*
X-73660Y-73660D02*
D03*
X-73740Y19207D02*
D03*
X-79390Y-85633D02*
D03*
X34910Y-62773D02*
D03*
X57770D02*
D03*
X-102250D02*
D03*
X-125110D02*
D03*
X-147970D02*
D03*
X-170830D02*
D03*
X-193690D02*
D03*
X-216550Y28667D02*
D03*
Y5807D02*
D03*
Y-17053D02*
D03*
Y-39913D02*
D03*
Y-62773D02*
D03*
X-239410Y-17053D02*
D03*
Y-39913D02*
D03*
X-285130Y-62773D02*
D03*
X-262270D02*
D03*
X-239410D02*
D03*
X-10810Y74387D02*
D03*
Y51527D02*
D03*
X12050Y74387D02*
D03*
Y51527D02*
D03*
X34910Y74387D02*
D03*
Y51527D02*
D03*
X57770Y74387D02*
D03*
Y51527D02*
D03*
Y5807D02*
D03*
Y28667D02*
D03*
X34910D02*
D03*
X12050D02*
D03*
X-10810D02*
D03*
X-33670D02*
D03*
X-56530D02*
D03*
Y5807D02*
D03*
Y-62773D02*
D03*
X-33670D02*
D03*
X-239410Y-85633D02*
D03*
X-170830D02*
D03*
X-193690D02*
D03*
X-216550D02*
D03*
X-102250D02*
D03*
X-125110D02*
D03*
X-147970D02*
D03*
X-33670D02*
D03*
X-56530D02*
D03*
X34910D02*
D03*
X12050D02*
D03*
X-10810D02*
D03*
X57770D02*
D03*
X80630D02*
D03*
Y-62773D02*
D03*
X103490D02*
D03*
X126350D02*
D03*
X316230Y-59690D02*
D03*
X293370D02*
D03*
X270510D02*
D03*
X194930Y5807D02*
D03*
X217790D02*
D03*
X-601106Y-47533D02*
D03*
X-532526Y21047D02*
D03*
X-509666Y-1813D02*
D03*
X-486806Y-24673D02*
D03*
Y-1813D02*
D03*
X-463946D02*
D03*
X-532526D02*
D03*
X245730Y5807D02*
D03*
Y28667D02*
D03*
X217790D02*
D03*
Y51527D02*
D03*
X-23510Y126457D02*
D03*
X353680Y28667D02*
D03*
X314310D02*
D03*
X291450D02*
D03*
X259700Y40097D02*
D03*
X206360D02*
D03*
X268590Y28667D02*
D03*
X194930D02*
D03*
Y51527D02*
D03*
X-417467Y-23113D02*
D03*
Y-253D02*
D03*
Y22607D02*
D03*
X-364886Y3267D02*
D03*
Y23587D02*
D03*
X-355996Y3267D02*
D03*
Y23587D02*
D03*
X-417467Y45467D02*
D03*
X268590Y51527D02*
D03*
X291450D02*
D03*
X314310D02*
D03*
X330820Y-39913D02*
D03*
X353680D02*
D03*
X-23510Y169637D02*
D03*
Y144237D02*
D03*
X-95250Y168910D02*
D03*
X-73660D02*
D03*
X-198770Y135347D02*
D03*
X-221630D02*
D03*
X-244490D02*
D03*
X-421020Y109947D02*
D03*
Y136617D02*
D03*
Y159477D02*
D03*
Y182337D02*
D03*
Y205197D02*
D03*
Y228057D02*
D03*
Y250917D02*
D03*
Y273777D02*
D03*
X-601106Y-93253D02*
D03*
X-578246D02*
D03*
X-555386D02*
D03*
X-532526D02*
D03*
X-509666D02*
D03*
X-601106Y-70393D02*
D03*
X-532526D02*
D03*
X-417846Y-92473D02*
D03*
X-441086Y-93253D02*
D03*
X-463946D02*
D03*
X-486806D02*
D03*
X-417846Y-69613D02*
D03*
X-441086Y-70393D02*
D03*
X-463946D02*
D03*
X-486806D02*
D03*
X-463946Y43907D02*
D03*
X-440706Y44687D02*
D03*
X-463946Y21047D02*
D03*
X-440706Y21827D02*
D03*
Y-1033D02*
D03*
X-398160Y68037D02*
D03*
X-417846Y-46753D02*
D03*
X-440706D02*
D03*
Y-23893D02*
D03*
X-463946Y-47533D02*
D03*
Y-24673D02*
D03*
X-486806Y-47533D02*
D03*
X-509666D02*
D03*
X-532526D02*
D03*
X-623966D02*
D03*
X356220Y158207D02*
D03*
Y181067D02*
D03*
Y432527D02*
D03*
X333360D02*
D03*
X356220Y409667D02*
D03*
X333360D02*
D03*
X356220Y386807D02*
D03*
X333360D02*
D03*
Y363947D02*
D03*
X356220Y341087D02*
D03*
Y318227D02*
D03*
Y295367D02*
D03*
Y272507D02*
D03*
Y203927D02*
D03*
Y226787D02*
D03*
Y249647D02*
D03*
Y363947D02*
D03*
X287640D02*
D03*
X333360Y89627D02*
D03*
Y112487D02*
D03*
X287640D02*
D03*
X310500D02*
D03*
Y135347D02*
D03*
Y203927D02*
D03*
Y226787D02*
D03*
X287640Y181067D02*
D03*
Y158207D02*
D03*
Y135347D02*
D03*
Y249647D02*
D03*
Y226787D02*
D03*
Y203927D02*
D03*
Y272507D02*
D03*
Y295367D02*
D03*
Y318227D02*
D03*
Y341087D02*
D03*
X250810Y215357D02*
D03*
X250804Y196567D02*
D03*
Y173707D02*
D03*
X126350Y-85633D02*
D03*
X103490D02*
D03*
Y-39913D02*
D03*
X126350D02*
D03*
X149210D02*
D03*
X80630D02*
D03*
X103490Y-17053D02*
D03*
X126350D02*
D03*
X149210D02*
D03*
X80630D02*
D03*
Y5807D02*
D03*
X149210D02*
D03*
X126350D02*
D03*
X103490D02*
D03*
X172070D02*
D03*
Y28667D02*
D03*
X103490D02*
D03*
X126350D02*
D03*
X149210D02*
D03*
Y51527D02*
D03*
X126350D02*
D03*
X103490D02*
D03*
X80624Y53057D02*
D03*
X172070Y51527D02*
D03*
X67924Y127987D02*
D03*
X90784D02*
D03*
X227944D02*
D03*
X205084D02*
D03*
Y150847D02*
D03*
X227944D02*
D03*
X250804D02*
D03*
X113644Y127987D02*
D03*
X136504D02*
D03*
X159364D02*
D03*
X182224D02*
D03*
X113644Y150847D02*
D03*
X136504D02*
D03*
X159364D02*
D03*
X182224D02*
D03*
X235564Y272767D02*
D03*
Y295627D02*
D03*
X144124Y364207D02*
D03*
X121264D02*
D03*
X212704Y341347D02*
D03*
X235564D02*
D03*
X121264D02*
D03*
X144124D02*
D03*
X166984D02*
D03*
X235564Y318487D02*
D03*
X212704D02*
D03*
X189844D02*
D03*
X-195580Y222250D02*
D03*
X-218440Y245110D02*
D03*
Y222250D02*
D03*
X-601106Y43907D02*
D03*
Y66767D02*
D03*
X-421020Y62957D02*
D03*
X-525160Y296637D02*
D03*
Y228057D02*
D03*
Y250917D02*
D03*
Y273777D02*
D03*
Y182337D02*
D03*
Y159477D02*
D03*
Y205197D02*
D03*
Y136617D02*
D03*
X-445150Y109947D02*
D03*
X-35696Y416277D02*
D03*
X124324Y393417D02*
D03*
X101464D02*
D03*
Y416277D02*
D03*
X78604Y439137D02*
D03*
Y416277D02*
D03*
Y393417D02*
D03*
Y370557D02*
D03*
Y347697D02*
D03*
X55744Y439137D02*
D03*
Y416277D02*
D03*
Y393417D02*
D03*
Y370557D02*
D03*
Y347697D02*
D03*
X32884Y439137D02*
D03*
Y416277D02*
D03*
Y393417D02*
D03*
Y370557D02*
D03*
Y347697D02*
D03*
X10024D02*
D03*
Y370557D02*
D03*
Y393417D02*
D03*
X-12836Y347697D02*
D03*
Y370557D02*
D03*
Y393417D02*
D03*
X10024Y416277D02*
D03*
Y439137D02*
D03*
Y461997D02*
D03*
X-12836Y416277D02*
D03*
Y439137D02*
D03*
Y461997D02*
D03*
X-35696Y484857D02*
D03*
X-12836D02*
D03*
X10024D02*
D03*
X-58556D02*
D03*
Y439137D02*
D03*
Y416277D02*
D03*
X-81416Y484857D02*
D03*
Y439137D02*
D03*
Y416277D02*
D03*
X-104276Y484857D02*
D03*
Y439137D02*
D03*
Y416277D02*
D03*
X-127136D02*
D03*
Y439137D02*
D03*
Y461997D02*
D03*
Y484857D02*
D03*
X-149996Y439137D02*
D03*
Y416277D02*
D03*
X2404Y126717D02*
D03*
Y144497D02*
D03*
Y169897D02*
D03*
Y195297D02*
D03*
Y220697D02*
D03*
Y246097D02*
D03*
Y271497D02*
D03*
X-646826Y21047D02*
D03*
Y-24673D02*
D03*
Y-47533D02*
D03*
Y-1813D02*
D03*
Y-93253D02*
D03*
X-495956Y310867D02*
D03*
X-622696Y226787D02*
D03*
Y249647D02*
D03*
Y272507D02*
D03*
Y295367D02*
D03*
Y318227D02*
D03*
Y341087D02*
D03*
Y203927D02*
D03*
X-646826Y43907D02*
D03*
Y66767D02*
D03*
X-623966D02*
D03*
Y43907D02*
D03*
Y89627D02*
D03*
Y112487D02*
D03*
Y135347D02*
D03*
Y158207D02*
D03*
X-646826Y135347D02*
D03*
Y89627D02*
D03*
Y112487D02*
D03*
Y203927D02*
D03*
Y158207D02*
D03*
Y181067D02*
D03*
Y386807D02*
D03*
Y432527D02*
D03*
Y409667D02*
D03*
X-456326Y273777D02*
D03*
Y250917D02*
D03*
Y228057D02*
D03*
Y205197D02*
D03*
Y182337D02*
D03*
Y159477D02*
D03*
Y136617D02*
D03*
X-495851Y136776D02*
D03*
Y159636D02*
D03*
Y182496D02*
D03*
Y205356D02*
D03*
Y228216D02*
D03*
Y251076D02*
D03*
Y273936D02*
D03*
X-114696Y51527D02*
D03*
Y41367D02*
D03*
X-315610Y-85633D02*
D03*
X-341010D02*
D03*
X-353456Y-50073D02*
D03*
Y-62773D02*
D03*
X-364886Y35017D02*
D03*
Y-6893D02*
D03*
X-355996D02*
D03*
X-366156Y-62773D02*
D03*
X-340756D02*
D03*
X-366156Y-50073D02*
D03*
X-340756D02*
D03*
X-128270Y379730D02*
D03*
X-105410D02*
D03*
X-82550D02*
D03*
X-59690D02*
D03*
X-36830D02*
D03*
X-128270Y364490D02*
D03*
X-105410D02*
D03*
X-82550D02*
D03*
X-59690D02*
D03*
X-36830D02*
D03*
X-251460Y484860D02*
D03*
X-228600D02*
D03*
X-274320D02*
D03*
X-320040D02*
D03*
X-457200Y439140D02*
D03*
X-434340D02*
D03*
X-411480D02*
D03*
X-388620D02*
D03*
X-365760D02*
D03*
X-297134Y416280D02*
D03*
X-274274D02*
D03*
X-251414D02*
D03*
X-251460Y393420D02*
D03*
X-274320D02*
D03*
X-297180D02*
D03*
X-457200D02*
D03*
X-434340D02*
D03*
X-411480D02*
D03*
X-388620D02*
D03*
X-365760D02*
D03*
X-342900D02*
D03*
X-320040D02*
D03*
X-319994Y416280D02*
D03*
X-342854D02*
D03*
X-365714D02*
D03*
X-388574D02*
D03*
X-411434D02*
D03*
X-434294D02*
D03*
X-457154D02*
D03*
X-646826Y341087D02*
D03*
Y363947D02*
D03*
X-622956Y364207D02*
D03*
X-646826Y318227D02*
D03*
Y295367D02*
D03*
Y272507D02*
D03*
Y249647D02*
D03*
Y226787D02*
D03*
X52684Y195297D02*
D03*
X52944Y144237D02*
D03*
X52684Y169897D02*
D03*
X53954Y246097D02*
D03*
Y271497D02*
D03*
X166984Y318487D02*
D03*
X164444Y299437D02*
D03*
X98404Y321027D02*
D03*
X76814D02*
D03*
X53954D02*
D03*
X121264Y318487D02*
D03*
X144124D02*
D03*
X231754Y213077D02*
D03*
X90784Y191487D02*
D03*
X113644D02*
D03*
X205084D02*
D03*
X65384D02*
D03*
X227944D02*
D03*
Y173707D02*
D03*
X137774Y258797D02*
D03*
X178414Y249907D02*
D03*
X76814Y209521D02*
D03*
Y168627D02*
D03*
X27284Y322297D02*
D03*
Y126717D02*
D03*
Y144497D02*
D03*
Y169897D02*
D03*
Y195297D02*
D03*
Y220697D02*
D03*
Y246097D02*
D03*
Y271497D02*
D03*
Y296897D02*
D03*
X-13600Y321062D02*
D03*
X2404Y296897D02*
D03*
X-366410Y-85633D02*
D03*
X-250846Y348967D02*
D03*
X-319426D02*
D03*
X184764Y276577D02*
D03*
Y299437D02*
D03*
X144124D02*
D03*
X121264D02*
D03*
X53954Y296897D02*
D03*
X76814D02*
D03*
X98404D02*
D03*
X65384Y173707D02*
D03*
X205084D02*
D03*
X182224D02*
D03*
X159364D02*
D03*
X136504D02*
D03*
X113644D02*
D03*
X90784D02*
D03*
X-117496Y168627D02*
D03*
X-237490Y199390D02*
D03*
X-240686Y221967D02*
D03*
X-198770Y158207D02*
D03*
X-221630D02*
D03*
X-266086Y244827D02*
D03*
Y267687D02*
D03*
Y221967D02*
D03*
Y199107D02*
D03*
X-261006Y176247D02*
D03*
X-244490Y158207D02*
D03*
X-266086Y290547D02*
D03*
Y310867D02*
D03*
X-305456D02*
D03*
Y290547D02*
D03*
Y153387D02*
D03*
Y176247D02*
D03*
Y199107D02*
D03*
Y221967D02*
D03*
Y267687D02*
D03*
Y244827D02*
D03*
X172070Y74387D02*
D03*
X149210D02*
D03*
X126350D02*
D03*
X103490D02*
D03*
X80630D02*
D03*
X-36830Y349250D02*
D03*
X-59690D02*
D03*
X-82550D02*
D03*
X-105410D02*
D03*
X-128270D02*
D03*
X-159406Y348967D02*
D03*
X-182266D02*
D03*
X-205126D02*
D03*
X-227986D02*
D03*
X-342286D02*
D03*
X-365146D02*
D03*
X-540406D02*
D03*
X-517546D02*
D03*
X-495956D02*
D03*
X-456586D02*
D03*
X-433726D02*
D03*
X-410866D02*
D03*
X-388006D02*
D03*
X-592476Y332457D02*
D03*
X-577236Y319757D02*
D03*
X-578506Y182597D02*
D03*
Y205457D02*
D03*
Y228317D02*
D03*
Y251177D02*
D03*
Y274037D02*
D03*
Y296897D02*
D03*
X-388006Y310867D02*
D03*
X-410866D02*
D03*
X-433726D02*
D03*
X-456586D02*
D03*
X-517546D02*
D03*
X-540406D02*
D03*
X-554376Y296897D02*
D03*
Y274037D02*
D03*
Y251177D02*
D03*
Y228317D02*
D03*
Y205457D02*
D03*
Y182597D02*
D03*
Y159737D02*
D03*
Y136877D02*
D03*
Y114017D02*
D03*
X-560726Y88617D02*
D03*
X-386730Y79467D02*
D03*
X-380386Y169897D02*
D03*
Y147037D02*
D03*
Y124177D02*
D03*
Y101317D02*
D03*
Y192757D02*
D03*
X-386736Y221967D02*
D03*
Y267687D02*
D03*
Y244827D02*
D03*
X-349906Y78457D02*
D03*
Y101317D02*
D03*
Y124177D02*
D03*
Y147037D02*
D03*
Y169897D02*
D03*
Y192757D02*
D03*
Y244827D02*
D03*
Y267687D02*
D03*
X-36830Y297180D02*
D03*
X-355996Y13427D02*
D03*
X-267206Y-22133D02*
D03*
Y-31023D02*
D03*
Y-13243D02*
D03*
X-471676Y371567D02*
D03*
X-480566Y362677D02*
D03*
Y371567D02*
D03*
X-471676Y362677D02*
D03*
X-279906D02*
D03*
Y371567D02*
D03*
X-288796Y362677D02*
D03*
Y371567D02*
D03*
Y300447D02*
D03*
Y291557D02*
D03*
X-279906Y300447D02*
D03*
Y291557D02*
D03*
X-471676D02*
D03*
Y300447D02*
D03*
X-480566Y291557D02*
D03*
Y300447D02*
D03*
X-258316Y-13243D02*
D03*
Y-22133D02*
D03*
Y-31023D02*
D03*
X-348486Y-28913D02*
D03*
X-357376D02*
D03*
X-366266D02*
D03*
X51564Y112487D02*
D03*
X-364886Y13427D02*
D03*
X60454Y103597D02*
D03*
Y112487D02*
D03*
X51564Y103597D02*
D03*
X69344Y112487D02*
D03*
Y103597D02*
D03*
X78234Y112487D02*
D03*
Y103597D02*
D03*
X87124Y112487D02*
D03*
Y103597D02*
D03*
X-124966D02*
D03*
Y112487D02*
D03*
X-133856Y103597D02*
D03*
Y112487D02*
D03*
X-142746Y103597D02*
D03*
Y112487D02*
D03*
X-160526D02*
D03*
Y103597D02*
D03*
X-151636Y112487D02*
D03*
Y103597D02*
D03*
X-36830Y321310D02*
D03*
X-59690Y297180D02*
D03*
Y321310D02*
D03*
X-142746Y41367D02*
D03*
Y51527D02*
D03*
X-565656Y338547D02*
D03*
X195184Y271237D02*
D03*
D100*
X268584Y225777D02*
D03*
X201274D02*
D03*
X69194Y65757D02*
D03*
D101*
X153670Y452120D02*
Y472009D01*
Y452120D02*
X178420Y427370D01*
Y402047D02*
Y427370D01*
M02*
